SplineFontDB: 3.2
FontName: Balvi-Regular
FullName: Balvi Regular
FamilyName: Balvi
Weight: Regular
Copyright: Copyright (c) 2013, Natanael Gama (www.ndiscovered.com . info(at)ndiscovered.com), with Reserved Font Name Exo. This Font Software is licensed under the SIL Open Font License, Version 1.1.\n\nModified into Balvi for Lojban/Zbalermorna in 2020 by Jack Humbert.
Version: 1.001
ItalicAngle: 0
UnderlinePosition: -251
UnderlineWidth: 43
Ascent: 750
Descent: 250
InvalidEm: 0
sfntRevision: 0x00010041
LayerCount: 2
Layer: 0 0 "Back" 1
Layer: 1 0 "Fore" 0
XUID: [1021 647 -312734098 17743]
StyleMap: 0x0040
FSType: 0
OS2Version: 4
OS2_WeightWidthSlopeOnly: 0
OS2_UseTypoMetrics: 0
CreationTime: 1438840825
ModificationTime: 1589916978
PfmFamily: 33
TTFWeight: 400
TTFWidth: 5
LineGap: 0
VLineGap: 0
Panose: 2 15 5 2 2 2 4 3 2 3
OS2TypoAscent: 750
OS2TypoAOffset: 0
OS2TypoDescent: -250
OS2TypoDOffset: 0
OS2TypoLinegap: 198
OS2WinAscent: 816
OS2WinAOffset: 0
OS2WinDescent: 313
OS2WinDOffset: 0
HheadAscent: 750
HheadAOffset: 0
HheadDescent: -250
HheadDOffset: 0
OS2SubXSize: 692
OS2SubYSize: 642
OS2SubXOff: 0
OS2SubYOff: 138
OS2SupXSize: 692
OS2SupYSize: 642
OS2SupXOff: 0
OS2SupYOff: 471
OS2StrikeYSize: 44
OS2StrikeYPos: 272
OS2CapHeight: 750
OS2XHeight: 500
OS2Vendor: 'JH  '
OS2CodePages: 2002019f.00000000
OS2UnicodeRanges: 80000001.10000002.00000000.00000000
Lookup: 4 0 1 "zlmFF" { "zlmFF subtable"  } ['liga' ('latn' <'dflt' > 'DFLT' <'dflt' > ) ]
Lookup: 4 0 1 "zlmSFF" { "zlmSFF subtable"  } ['liga' ('latn' <'dflt' > 'DFLT' <'dflt' > ) ]
Lookup: 4 0 1 "zlmSF" { "zlmSF subtable"  } ['liga' ('latn' <'dflt' > 'DFLT' <'dflt' > ) ]

StartChar: exclam
Encoding: 1 33 1
Width: 273
Flags: HW
LayerCount: 2
Fore
SplineSet
179 389 m 1
 171 211 l 1
 103 211 l 1
 94 389 l 1
 94 695 l 1
 179 695 l 1
 179 389 l 1
126 118 m 2
 148 118 l 2
 159.333333333 118 167.5 115.666666667 172.5 111 c 128
 177.5 106.333333333 180 98 180 86 c 2
 180 32 l 2
 180 20 177.5 11.6666666667 172.5 7 c 128
 167.5 2.33333333333 159.333333333 0 148 0 c 2
 126 0 l 2
 114.666666667 0 106.666666667 2.33333333333 102 7 c 128
 97.3333333333 11.6666666667 95 20 95 32 c 2
 95 86 l 2
 95 98 97.3333333333 106.333333333 102 111 c 128
 106.666666667 115.666666667 114.666666667 118 126 118 c 2
EndSplineSet
EndChar

StartChar: question
Encoding: 13 63 2
Width: 505
Flags: HW
LayerCount: 2
Fore
SplineSet
45 630 m 1
 40 691 l 1
 44.6666666667 691.666666667 55 693.5 71 696.5 c 128
 87 699.5 97.3333333333 701.333333333 102 702 c 128
 109 703 109 703 130 706 c 128
 144 708 156 709.166666667 166 709.5 c 128
 176 709.833333333 189.333333333 710.333333333 206 711 c 128
 222.666666667 711.666666667 240.666666667 712 260 712 c 0
 394.666666667 712 462 660.333333333 462 557 c 0
 462 533.666666667 457.666666667 511.833333333 449 491.5 c 128
 440.333333333 471.166666667 429.333333333 453.833333333 416 439.5 c 128
 402.666666667 425.166666667 388.333333333 409.5 373 392.5 c 128
 357.666666667 375.5 343.333333333 359.333333333 330 344 c 128
 316.666666667 328.666666667 305.166666667 309.333333333 295.5 286 c 128
 285.833333333 262.666666667 280.666666667 237.666666667 280 211 c 1
 207 211 l 1
 206.333333333 245 211.5 276.333333333 222.5 305 c 128
 233.5 333.666666667 247 357.5 263 376.5 c 128
 279 395.5 295.166666667 413.5 311.5 430.5 c 128
 327.833333333 447.5 341.833333333 465.333333333 353.5 484 c 128
 365.166666667 502.666666667 371.333333333 522 372 542 c 0
 373.333333333 575.333333333 363.5 600 342.5 616 c 128
 321.5 632 288 640 242 640 c 0
 185.333333333 640 119.666666667 636.666666667 45 630 c 1
232 118 m 2
 255 118 l 2
 266.333333333 118 274.333333333 115.666666667 279 111 c 128
 283.666666667 106.333333333 286 98 286 86 c 2
 286 32 l 2
 286 20 283.666666667 11.6666666667 279 7 c 128
 274.333333333 2.33333333333 266.333333333 0 255 0 c 2
 232 0 l 2
 220.666666667 0 212.666666667 2.33333333333 208 7 c 128
 203.333333333 11.6666666667 201 20 201 32 c 2
 201 86 l 2
 201 98 203.333333333 106.333333333 208 111 c 128
 212.666666667 115.666666667 220.666666667 118 232 118 c 2
EndSplineSet
EndChar

StartChar: semicolon
Encoding: 10 59 3
Width: 237
Flags: HW
LayerCount: 2
Fore
SplineSet
105 440 m 2
 134 440 l 2
 145.333333333 440 153.333333333 437.666666667 158 433 c 128
 162.666666667 428.333333333 165 420.333333333 165 409 c 2
 165 354 l 2
 165 342 162.666666667 333.666666667 158 329 c 128
 153.333333333 324.333333333 145.333333333 322 134 322 c 2
 105 322 l 2
 93.6666666667 322 85.6666666667 324.333333333 81 329 c 128
 76.3333333333 333.666666667 74 342 74 354 c 2
 74 409 l 2
 74 420.333333333 76.3333333333 428.333333333 81 433 c 128
 85.6666666667 437.666666667 93.6666666667 440 105 440 c 2
107 118 m 2
 132 118 l 2
 144 118 152.166666667 115.666666667 156.5 111 c 128
 160.833333333 106.333333333 163 98 163 86 c 2
 163 22 l 2
 162.333333333 -34 151 -85.3333333333 129 -132 c 1
 88 -120 l 1
 94.6666666667 -80.6666666667 98 -40.6666666667 98 0 c 1
 82 0 74 9.33333333333 74 28 c 2
 74 86 l 2
 74.6666666667 98 77.5 106.333333333 82.5 111 c 128
 87.5 115.666666667 95.6666666667 118 107 118 c 2
EndSplineSet
EndChar

StartChar: colon
Encoding: 9 58 4
Width: 236
Flags: HW
LayerCount: 2
Fore
SplineSet
101 440 m 2
 129 440 l 2
 140.333333333 440 148.5 437.666666667 153.5 433 c 128
 158.5 428.333333333 161 420.333333333 161 409 c 2
 161 354 l 2
 161 342 158.5 333.666666667 153.5 329 c 128
 148.5 324.333333333 140.333333333 322 129 322 c 2
 101 322 l 2
 89.6666666667 322 81.5 324.333333333 76.5 329 c 128
 71.5 333.666666667 69 342 69 354 c 2
 69 409 l 2
 69 420.333333333 71.5 428.333333333 76.5 433 c 128
 81.5 437.666666667 89.6666666667 440 101 440 c 2
101 118 m 2
 129 118 l 2
 140.333333333 118 148.5 115.666666667 153.5 111 c 128
 158.5 106.333333333 161 98 161 86 c 2
 161 32 l 2
 161 20 158.5 11.6666666667 153.5 7 c 128
 148.5 2.33333333333 140.333333333 0 129 0 c 2
 101 0 l 2
 89.6666666667 0 81.5 2.33333333333 76.5 7 c 128
 71.5 11.6666666667 69 20 69 32 c 2
 69 86 l 2
 69 98 71.5 106.333333333 76.5 111 c 128
 81.5 115.666666667 89.6666666667 118 101 118 c 2
EndSplineSet
EndChar

StartChar: guillemotleft
Encoding: 18 171 5
Width: 485
Flags: HW
LayerCount: 2
Fore
SplineSet
249 429 m 1
 123 251 l 1
 250 69 l 1
 206 39 l 1
 44 241 l 1
 44 261 l 1
 205 459 l 1
 249 429 l 1
431 429 m 1
 305 251 l 1
 432 69 l 1
 387 39 l 1
 226 241 l 1
 226 261 l 1
 386 459 l 1
 431 429 l 1
EndSplineSet
EndChar

StartChar: guillemotright
Encoding: 19 187 6
Width: 485
Flags: HW
LayerCount: 2
Fore
SplineSet
259 261 m 1
 259 241 l 1
 98 39 l 1
 53 69 l 1
 180 251 l 1
 54 429 l 1
 99 459 l 1
 259 261 l 1
440 261 m 1
 440 241 l 1
 279 39 l 1
 234 69 l 1
 362 251 l 1
 235 429 l 1
 280 459 l 1
 440 261 l 1
EndSplineSet
EndChar

StartChar: parenleft
Encoding: 7 40 7
Width: 359
Flags: HW
LayerCount: 2
Fore
SplineSet
317 790 m 1
 328 749 l 1
 262 717 213.666666667 665.166666667 183 593.5 c 128
 152.333333333 521.833333333 137 428.333333333 137 313 c 0
 137 87 200.666666667 -58.6666666667 328 -124 c 1
 317 -165 l 1
 226.333333333 -130.333333333 159.833333333 -74.3333333333 117.5 3 c 128
 75.1666666667 80.3333333333 54 183.333333333 54 312 c 0
 54 441.333333333 75.1666666667 544.666666667 117.5 622 c 128
 159.833333333 699.333333333 226.333333333 755.333333333 317 790 c 1
EndSplineSet
EndChar

StartChar: parenright
Encoding: 8 41 8
Width: 359
Flags: HW
LayerCount: 2
Fore
SplineSet
32 749 m 1
 42 790 l 1
 132.666666667 755.333333333 199.333333333 699.5 242 622.5 c 128
 284.666666667 545.5 306 442 306 312 c 0
 306 183.333333333 284.666666667 80.3333333333 242 3 c 128
 199.333333333 -74.3333333333 132.666666667 -130.333333333 42 -165 c 1
 32 -124 l 1
 97.3333333333 -90 145.333333333 -37 176 35 c 128
 206.666666667 107 222 199.666666667 222 313 c 0
 222 428.333333333 206.666666667 521.833333333 176 593.5 c 128
 145.333333333 665.166666667 97.3333333333 717 32 749 c 1
EndSplineSet
EndChar

StartChar: bracketleft
Encoding: 14 91 9
Width: 329
Flags: HW
LayerCount: 2
Fore
SplineSet
288 712 m 1
 186 712 l 2
 176.666666667 712 172 706.666666667 172 696 c 2
 172 -93 l 2
 172 -103.666666667 176.666666667 -109 186 -109 c 2
 288 -109 l 1
 288 -165 l 1
 145 -165 l 2
 109 -165 91 -147 91 -111 c 2
 91 714 l 2
 91 730 96.1666666667 743 106.5 753 c 128
 116.833333333 763 129.666666667 768 145 768 c 2
 288 768 l 1
 288 712 l 1
EndSplineSet
EndChar

StartChar: bracketright
Encoding: 15 93 10
Width: 329
Flags: HW
LayerCount: 2
Fore
SplineSet
41 768 m 1
 183 768 l 2
 199 768 212 763 222 753 c 128
 232 743 237 730 237 714 c 2
 237 -111 l 2
 237 -127 232 -140 222 -150 c 128
 212 -160 199 -165 183 -165 c 2
 41 -165 l 1
 41 -109 l 1
 142 -109 l 2
 152 -109 157 -103.666666667 157 -93 c 2
 157 696 l 2
 157 706.666666667 152 712 142 712 c 2
 41 712 l 1
 41 768 l 1
EndSplineSet
EndChar

StartChar: braceleft
Encoding: 16 123 11
Width: 319
Flags: HW
LayerCount: 2
Fore
SplineSet
276 768 m 1
 276 714 l 1
 242 714 218.5 707.666666667 205.5 695 c 128
 192.5 682.333333333 186 660.333333333 186 629 c 2
 186 450 l 2
 186.666666667 409.333333333 180.833333333 380.666666667 168.5 364 c 128
 156.166666667 347.333333333 132.333333333 335.333333333 97 328 c 1
 133.666666667 316.666666667 158.166666667 303 170.5 287 c 128
 182.833333333 271 189.333333333 245.333333333 190 210 c 2
 190 -27 l 2
 190 -57.6666666667 196.5 -79.3333333333 209.5 -92 c 128
 222.5 -104.666666667 246 -111 280 -111 c 1
 280 -165 l 1
 220 -169.666666667 176.333333333 -160.666666667 149 -138 c 128
 121.666666667 -115.333333333 108 -80 108 -32 c 2
 108 224 l 2
 108 236.666666667 107.166666667 246.666666667 105.5 254 c 128
 103.833333333 261.333333333 99.5 267.833333333 92.5 273.5 c 128
 85.5 279.166666667 79.6666666667 283.166666667 75 285.5 c 128
 70.3333333333 287.833333333 60.6666666667 291.666666667 46 297 c 1
 46 359 l 1
 72 367 88.1666666667 374.5 94.5 381.5 c 128
 100.833333333 388.5 104 406.666666667 104 436 c 2
 104 635 l 2
 104 683 117.666666667 718.333333333 145 741 c 128
 172.333333333 763.666666667 216 772.666666667 276 768 c 1
EndSplineSet
EndChar

StartChar: braceright
Encoding: 17 125 12
Width: 320
Flags: HW
LayerCount: 2
Fore
SplineSet
44 714 m 1
 44 768 l 1
 104 772.666666667 147.666666667 763.666666667 175 741 c 128
 202.333333333 718.333333333 216 683 216 635 c 2
 216 436 l 2
 216 406.666666667 219.166666667 388.5 225.5 381.5 c 128
 231.833333333 374.5 248 367 274 359 c 1
 274 297 l 1
 255.333333333 290.333333333 242.833333333 285.166666667 236.5 281.5 c 128
 230.166666667 277.833333333 224.5 271.5 219.5 262.5 c 128
 214.5 253.5 212 240.666666667 212 224 c 2
 212 -32 l 2
 212 -80 198.333333333 -115.333333333 171 -138 c 128
 143.666666667 -160.666666667 100 -169.666666667 40 -165 c 1
 40 -111 l 1
 74 -111 97.5 -104.666666667 110.5 -92 c 128
 123.5 -79.3333333333 130 -57.6666666667 130 -27 c 2
 130 210 l 2
 130.666666667 245.333333333 137.166666667 271 149.5 287 c 128
 161.833333333 303 186.333333333 316.666666667 223 328 c 1
 187.666666667 335.333333333 163.833333333 347.333333333 151.5 364 c 128
 139.166666667 380.666666667 133.333333333 409.333333333 134 450 c 2
 134 629 l 2
 134 660.333333333 127.5 682.333333333 114.5 695 c 128
 101.5 707.666666667 78 714 44 714 c 1
EndSplineSet
EndChar

StartChar: quotedbl
Encoding: 2 34 13
Width: 353
Flags: HW
LayerCount: 2
Fore
SplineSet
134 475 m 1
 75 475 l 1
 70 690 l 1
 140 690 l 1
 134 475 l 1
278 475 m 1
 220 475 l 1
 214 690 l 1
 283 690 l 1
 278 475 l 1
EndSplineSet
EndChar

StartChar: ampersand
Encoding: 6 38 14
Width: 772
Flags: HW
LayerCount: 2
Fore
SplineSet
715 66 m 1
 725 4 l 1
 695 -4.66666666667 659.666666667 -9 619 -9 c 0
 549.666666667 -9 509.666666667 19.6666666667 499 77 c 1
 469.666666667 45.6666666667 437.333333333 23.3333333333 402 10 c 128
 366.666666667 -3.33333333333 322.333333333 -10 269 -10 c 0
 195.666666667 -10 143.666666667 3.66666666667 113 31 c 128
 82.3333333333 58.3333333333 67 106.333333333 67 175 c 0
 67 230.333333333 77.3333333333 273.333333333 98 304 c 128
 118.666666667 334.666666667 153.333333333 352 202 356 c 1
 202 360 l 1
 161.333333333 364 132 379.166666667 114 405.5 c 128
 96 431.833333333 87 470.333333333 87 521 c 0
 87 561 91.6666666667 592.833333333 101 616.5 c 128
 110.333333333 640.166666667 126.666666667 658.166666667 150 670.5 c 128
 173.333333333 682.833333333 199.5 690.833333333 228.5 694.5 c 128
 257.5 698.166666667 297.333333333 700 348 700 c 0
 409.333333333 700 462.333333333 696.666666667 507 690 c 1
 497 625 l 1
 470.333333333 627 419.666666667 628 345 628 c 0
 279 628 234.333333333 620.666666667 211 606 c 128
 187.666666667 591.333333333 176 559 176 509 c 0
 176 463 185.666666667 431.833333333 205 415.5 c 128
 224.333333333 399.166666667 259.333333333 391 310 391 c 2
 498 391 l 1
 506 519 l 1
 577 519 l 1
 577 391 l 1
 702 391 l 1
 702 324 l 1
 577 324 l 1
 577 131 l 2
 577 107.666666667 581.833333333 91 591.5 81 c 128
 601.166666667 71 617.666666667 66 641 66 c 2
 715 66 l 1
497 324 m 1
 306 324 l 2
 250.666666667 324 212.333333333 314.5 191 295.5 c 128
 169.666666667 276.5 159 241 159 189 c 0
 159 142.333333333 168.333333333 110.166666667 187 92.5 c 128
 205.666666667 74.8333333333 239.666666667 66 289 66 c 0
 377 66.6666666667 446.333333333 93 497 145 c 1
 497 324 l 1
EndSplineSet
EndChar

StartChar: dollar
Encoding: 4 36 15
Width: 564
Flags: HW
LayerCount: 2
Fore
SplineSet
315 385 m 1
 373 370 l 2
 424.333333333 357.333333333 460.5 335.666666667 481.5 305 c 128
 502.5 274.333333333 513 231.333333333 513 176 c 0
 513 100 495.833333333 49.6666666667 461.5 25 c 128
 427.166666667 0.333333333333 367 -12 281 -12 c 2
 279 -12 l 1
 270 -127 l 1
 224 -127 l 1
 233 -11 l 1
 173 -8.33333333333 117.666666667 -2.33333333333 67 7 c 1
 73 74 l 1
 94.3333333333 73.3333333333 117.5 72.6666666667 142.5 72 c 128
 167.5 71.3333333333 187.166666667 70.8333333333 201.5 70.5 c 128
 215.833333333 70.1666666667 228.666666667 70 240 70 c 1
 258 312 l 1
 194 328 l 2
 145.333333333 340 110.333333333 361.5 89 392.5 c 128
 67.6666666667 423.5 57 466 57 520 c 0
 57 560 61.1666666667 592.166666667 69.5 616.5 c 128
 77.8333333333 640.833333333 92.1666666667 659.166666667 112.5 671.5 c 128
 132.833333333 683.833333333 155.5 692 180.5 696 c 128
 205.5 700 239 702 281 702 c 2
 293 702 l 1
 300 799 l 1
 345 799 l 1
 338 700 l 1
 393.333333333 698 442.666666667 692 486 682 c 1
 480 618 l 1
 426 620.666666667 376.666666667 622.333333333 332 623 c 1
 315 385 l 1
287 623 m 1
 285 623 l 2
 255.666666667 623 234 622.333333333 220 621 c 128
 206 619.666666667 192.333333333 615.666666667 179 609 c 128
 165.666666667 602.333333333 156.833333333 591.833333333 152.5 577.5 c 128
 148.166666667 563.166666667 146 543.333333333 146 518 c 0
 146 481.333333333 152.5 455.333333333 165.5 440 c 128
 178.5 424.666666667 201.333333333 413 234 405 c 2
 270 396 l 1
 287 623 l 1
303 300 m 1
 285 70 l 1
 339 70 375.5 76.8333333333 394.5 90.5 c 128
 413.5 104.166666667 423 133.333333333 423 178 c 0
 423 216 416.666666667 242.5 404 257.5 c 128
 391.333333333 272.5 368.666666667 284 336 292 c 2
 303 300 l 1
EndSplineSet
EndChar

StartChar: numbersign
Encoding: 3 35 16
Width: 685
Flags: HW
LayerCount: 2
Fore
SplineSet
520 448 m 1
 488 268 l 1
 598 268 l 1
 587 213 l 1
 479 213 l 1
 442 0 l 1
 374 0 l 1
 411 213 l 1
 228 213 l 1
 191 0 l 1
 123 0 l 1
 160 213 l 1
 44 213 l 1
 55 268 l 1
 169 268 l 1
 201 448 l 1
 86 448 l 1
 97 503 l 1
 210 503 l 1
 243 690 l 1
 311 690 l 1
 278 503 l 1
 461 503 l 1
 494 690 l 1
 562 690 l 1
 529 503 l 1
 640 503 l 1
 629 448 l 1
 520 448 l 1
452 448 m 1
 269 448 l 1
 237 268 l 1
 420 268 l 1
 452 448 l 1
EndSplineSet
EndChar

StartChar: less
Encoding: 11 60 17
Width: 530
Flags: HW
LayerCount: 2
Fore
SplineSet
459 438 m 1
 127 298 l 1
 459 161 l 1
 459 93 l 1
 53 264 l 1
 53 332 l 1
 459 506 l 1
 459 438 l 1
EndSplineSet
EndChar

StartChar: greater
Encoding: 12 62 18
Width: 530
Flags: HW
LayerCount: 2
Fore
SplineSet
477 332 m 1
 477 264 l 1
 71 93 l 1
 71 161 l 1
 403 298 l 1
 71 438 l 1
 71 506 l 1
 477 332 l 1
EndSplineSet
EndChar

StartChar: percent
Encoding: 5 37 19
Width: 894
Flags: HW
LayerCount: 2
Fore
SplineSet
207 703 m 0
 266.333333333 703 308 687.333333333 332 656 c 128
 356 624.666666667 368 572 368 498 c 128
 368 424 356 371.333333333 332 340 c 128
 308 308.666666667 266.333333333 293 207 293 c 0
 148.333333333 293 107 308.666666667 83 340 c 128
 59 371.333333333 47 424 47 498 c 128
 47 572 59 624.666666667 83 656 c 128
 107 687.333333333 148.333333333 703 207 703 c 0
252 0 m 1
 192 0 l 1
 639 690 l 1
 699 690 l 1
 252 0 l 1
207 649 m 128
 171 649 146.166666667 637.833333333 132.5 615.5 c 128
 118.833333333 593.166666667 112 554 112 498 c 128
 112 442 118.833333333 402.833333333 132.5 380.5 c 128
 146.166666667 358.166666667 171 347 207 347 c 128
 243 347 267.833333333 358 281.5 380 c 128
 295.166666667 402 302 441.333333333 302 498 c 0
 302 554 295.166666667 593.166666667 281.5 615.5 c 128
 267.833333333 637.833333333 243 649 207 649 c 128
686 400 m 128
 744.666666667 400 786 384.333333333 810 353 c 128
 834 321.666666667 846 269.333333333 846 196 c 0
 846 122 834 69.3333333333 810 38 c 128
 786 6.66666666667 744.666666667 -9 686 -9 c 128
 627.333333333 -9 586 6.66666666667 562 38 c 128
 538 69.3333333333 526 122 526 196 c 0
 526 269.333333333 538 321.666666667 562 353 c 128
 586 384.333333333 627.333333333 400 686 400 c 128
685 346 m 128
 649 346 624.166666667 335.166666667 610.5 313.5 c 128
 596.833333333 291.833333333 590.333333333 252.666666667 591 196 c 0
 590.333333333 139.333333333 596.833333333 99.8333333333 610.5 77.5 c 128
 624.166666667 55.1666666667 649 44 685 44 c 128
 721 44 746 55.1666666667 760 77.5 c 128
 774 99.8333333333 781 139.333333333 781 196 c 0
 781 252 774 291 760 313 c 128
 746 335 721 346 685 346 c 128
EndSplineSet
EndChar

StartChar: NameMe.66773
Encoding: 256 -1 20
Width: 551
VWidth: 988
Flags: W
HStem: 0 21G<70 126.5 398 487> 480 20G<422 487>
VStem: 70 88<144.421 728> 398 89<0 357.625>
LayerCount: 2
Fore
SplineSet
70 728 m 1
 158 728 l 1
 158 192 l 2
 157 169 l 0
 157 161 157 153 156 144 c 1
 400 484 l 2
 402 486 404 489 407 492 c 0
 409 494 412 496 414 497 c 0
 416 498 420 500 424 500 c 0
 428 500 433 500 437 500 c 2
 487 500 l 1
 487 0 l 1
 398 0 l 1
 398 312 l 2
 399 334 l 0
 399 342 399 350 400 358 c 1
 156 17 l 2
 154 14 149 10 141 4 c 0
 137 1 131 0 122 0 c 2
 70 0 l 1
 70 728 l 1
EndSplineSet
EndChar

StartChar: NameMe.66774
Encoding: 257 -1 21
Width: 551
VWidth: 988
Flags: W
HStem: 0 21G<70 126.5> 480 20G<70 158 422 487>
VStem: 70 88<144.421 500> 398 89<-169 357.625>
LayerCount: 2
Fore
SplineSet
70 500 m 1
 158 500 l 1
 158 192 l 2
 158 185 157 177 157 169 c 0
 157 161 157 153 156 144 c 1
 400 484 l 2
 402 486 404 489 407 492 c 0
 409 494 412 496 414 497 c 0
 416 498 420 500 424 500 c 0
 428 500 433 500 437 500 c 2
 487 500 l 1
 487 -169 l 1
 398 -169 l 1
 398 312 l 2
 398 319 399 326 399 334 c 0
 399 342 399 350 400 358 c 1
 156 17 l 2
 154 14 149 10 141 4 c 0
 137 1 131 0 122 0 c 2
 70 0 l 1
 70 500 l 1
EndSplineSet
EndChar

StartChar: NameMe.66777
Encoding: 258 -1 22
Width: 415
VWidth: 988
Flags: W
HStem: 0 21G<101 125.5 298.5 357> 480 20G<269 357>
VStem: 70 88<64 728> 269 88<109.359 500> 281 76<0.0703125 72>
LayerCount: 2
Fore
SplineSet
158 64 m 1xe8
 175 67 192 73 207 81 c 0
 230 93 250 110 269 132 c 1
 269 500 l 1
 357 500 l 1xf0
 357 0 l 1
 305 0 l 2
 292 0 284 6 281 18 c 1
 274 72 l 1
 252 48 228 29 201 16 c 0
 174 3 143 -3 108 -3 c 0
 94 -3 82 -2 70 -0 c 1
 70 32 70 32 70 728 c 1
 158 728 l 1
 158 64 l 1xe8
EndSplineSet
EndChar

StartChar: NameMe.66775
Encoding: 259 -1 23
Width: 415
VWidth: 988
Flags: W
HStem: 0 21G<70 150.5> 480 20G<272 357>
VStem: 70 88<76 728> 272 85<126.563 500>
LayerCount: 2
Fore
SplineSet
158 76 m 17
 234 89 272 132 272 204 c 10
 272 500 l 1
 357 500 l 1
 357 202 l 2
 357 141 335 92 292 56 c 0
 248 19 188 0 113 0 c 2
 70 0 l 1
 70 728 l 1
 158 728 l 1
 158 76 l 17
EndSplineSet
EndChar

StartChar: NameMe.66778
Encoding: 260 -1 24
Width: 415
VWidth: 988
Flags: W
HStem: 0 21G<70 158> 480 20G<70 128.5 301.5 326>
VStem: 70 88<0 391.641> 70 76<428 499.93> 269 88<-169 436>
LayerCount: 2
Fore
SplineSet
269 436 m 1xd8
 252 433 235 428 220 420 c 0
 197 408 177 391 158 369 c 1
 158 0 l 1
 70 0 l 1xe8
 70 500 l 1
 122 500 l 2
 135 500 143 494 146 482 c 1
 153 428 l 1
 175 452 199 471 226 484 c 0
 253 497 284 504 319 504 c 0
 333 504 345 503 357 501 c 1
 357 498 357 498 357 -169 c 1
 269 -169 l 1
 269 436 l 1xd8
EndSplineSet
EndChar

StartChar: NameMe.66776
Encoding: 261 -1 25
Width: 415
VWidth: 988
Flags: W
HStem: 0 21G<70 155> 480 20G<276.5 357>
VStem: 70 85<0 372.088> 269 88<-169 424>
LayerCount: 2
Fore
SplineSet
269 424 m 17
 193 411 155 368 155 296 c 10
 155 0 l 1
 70 0 l 1
 70 299 l 2
 70 360 92 409 135 445 c 0
 179 482 239 500 314 500 c 2
 357 500 l 1
 357 -169 l 1
 269 -169 l 1
 269 424 l 17
EndSplineSet
EndChar

StartChar: NameMe.66779
Encoding: 262 -1 26
Width: 550
VWidth: 988
Flags: W
HStem: 0 78<158 275.633> 480 20G<70 158 398 487>
VStem: 70 88<78 500> 398 89<178.004 500> 409 78<0.287109 140>
LayerCount: 2
Fore
SplineSet
403 140 m 1xe8
 356 47 272 0 150 0 c 0
 110 0 110 0 70 0 c 1
 70 77 l 2
 70 466 l 0
 70 500 l 1
 158 500 l 0
 158 78 l 0
 162 78 l 2
 267 78 338 111 377 178 c 0
 385 191 392 207 398 224 c 1
 398 500 l 1
 487 500 l 1xf0
 487 0 l 1
 436 0 l 2
 419 0 410 8 409 24 c 2
 403 140 l 1xe8
EndSplineSet
EndChar

StartChar: NameMe.66780
Encoding: 263 -1 27
Width: 550
VWidth: 988
Flags: W
HStem: 0 77<158 218.839> 480 20G<70 158 403.5 487>
VStem: 70 88<77 500> 398 89<0 359>
LayerCount: 2
Fore
SplineSet
487 500 m 1
 487 0 l 1
 443 0 442 0 398 0 c 1
 398 282 l 2
 398 316 399 338 400 347 c 0
 401 351 402 355 402 359 c 257
 369 120 281 0 139 0 c 2
 70 0 l 1
 70 500 l 1
 158 500 l 1
 158 77 l 1
 258 77 334 213 384 483 c 0
 386 495 395 500 412 500 c 2
 487 500 l 1
EndSplineSet
EndChar

StartChar: NameMe.66781
Encoding: 264 -1 28
Width: 359
VWidth: 988
Flags: W
HStem: 0 21G<70 158> 423 86<222.581 345.904>
VStem: 70 88<0 362.216 401 728>
LayerCount: 2
Fore
SplineSet
158 728 m 5
 158 460 l 4
 158 401 l 5
 173 435 191 461 213 480 c 4
 235 499 262 509 295 509 c 4
 306 509 316 508 326 506 c 4
 336 504 344 501 352 496 c 5
 346 430 l 5
 344 421 339 417 331 417 c 4
 326 417 319 418 310 420 c 4
 301 422 292 423 281 423 c 4
 265 423 250 421 238 416 c 4
 226 411 215 404 205 395 c 4
 195 386 187 374 179 361 c 4
 171 348 165 332 158 315 c 5
 158 0 l 5
 100 0 l 4
 70 0 l 5
 70 728 l 5
 158 728 l 5
EndSplineSet
EndChar

StartChar: NameMe.66782
Encoding: 265 -1 29
Width: 359
VWidth: 988
Flags: W
HStem: -7 87<26.0967 149.419> 480 20G<214 302>
VStem: 214 88<-169 101 139.784 500>
LayerCount: 2
Fore
SplineSet
214 -169 m 1
 214 42 l 0
 214 101 l 1
 199 67 181 41 159 22 c 0
 137 3 110 -7 77 -7 c 0
 66 -7 56 -5 46 -3 c 0
 36 -1 28 2 20 7 c 1
 26 73 l 1
 28 82 34 85 42 85 c 0
 47 85 53 85 62 83 c 0
 71 81 80 80 91 80 c 0
 107 80 122 82 134 87 c 0
 146 92 157 98 167 107 c 0
 177 116 185 128 193 141 c 0
 201 154 207 170 214 187 c 1
 214 500 l 1
 272 500 l 0
 302 500 l 1
 302 -169 l 1
 214 -169 l 1
EndSplineSet
EndChar

StartChar: NameMe.66783
Encoding: 266 -1 30
Width: 471
VWidth: 988
Flags: W
HStem: -174 68<223.104 376.686> 440 68<226.167 378.785>
VStem: 56 90<-1.39722 336.01>
LayerCount: 2
Fore
SplineSet
432 412 m 2
 429 408 427 405 424 403 c 0
 421 401 419 400 414 400 c 0
 409 400 403 402 397 406 c 0
 391 410 384 415 376 420 c 0
 368 425 357 430 345 434 c 0
 333 438 319 440 302 440 c 0
 276 440 253 435 234 424 c 0
 215 413 198 397 185 375 c 0
 172 353 162 324 156 290 c 0
 150 256 146 214 146 167 c 0
 146 117 150 75 157 40 c 0
 164 5 174 -23 187 -45 c 0
 200 -67 217 -82 236 -92 c 0
 255 -102 277 -106 302 -106 c 0
 321 -106 336 -104 349 -99 c 0
 362 -94 371 -88 380 -82 c 0
 389 -76 396 -69 402 -64 c 0
 408 -59 414 -57 420 -57 c 0
 424 -57 427 -58 430 -59 c 0
 433 -60 435 -62 437 -65 c 2
 461 -97 l 1
 450 -111 439 -122 425 -132 c 0
 411 -142 396 -150 381 -156 c 0
 366 -162 350 -167 334 -170 c 0
 318 -173 302 -174 287 -174 c 0
 253 -174 221 -168 193 -156 c 0
 165 -144 141 -124 121 -97 c 0
 101 -70 84 -35 73 7 c 0
 62 49 56 101 56 162 c 0
 56 276 76 361 117 420 c 0
 158 479 217 508 294 508 c 0
 328 508 358 502 385 491 c 0
 412 480 435 464 456 443 c 1
 432 412 l 2
EndSplineSet
EndChar

StartChar: NameMe.66784
Encoding: 267 -1 31
Width: 446
VWidth: 988
Flags: W
HStem: -179 67<166.628 313.656> 432 68<29 293>
VStem: 30 75<-50.9284 116.254>
LayerCount: 2
Fore
SplineSet
293 432 m 1
 29 432 l 1
 29 500 l 1
 406 500 l 1
 406 464 l 2
 406 460 405 455 403 449 c 0
 401 442 398 436 394 432 c 2
 166 173 l 2
 125 126 105 80 105 35 c 3
 105 -14 119 -50 146 -75 c 0
 174 -100 205 -112 241 -112 c 3
 277 -112 313 -96 351 -64 c 1
 366 -52 379 -54 390 -69 c 2
 411 -97 l 1
 362 -152 303 -179 234 -179 c 0
 177 -179 130 -161 91 -126 c 0
 50 -89 30 -41 30 19 c 3
 30 91 56 157 107 217 c 2
 293 432 l 1
EndSplineSet
EndChar

StartChar: py
Encoding: 20 60800 32
Width: 538
VWidth: 988
GlyphClass: 2
Flags: W
HStem: 0 78<164 255.915> 467 20G<398 488>
VStem: 78 86<78 700> 398 89<289.609 487>
AnchorPoint: "Top" 376 656 basechar 0
AnchorPoint: "Bottom" 226 0 basechar 0
LayerCount: 2
Back
SplineSet
164 700 m 5
 164 507 l 6
 164 469.666666667 162 438 158 412 c 5
 236.666666667 470 308.666666667 499 374 499 c 4
 462 499 506 454.333333333 506 365 c 6
 506 0 l 5
 420 0 l 5
 420 341 l 6
 420 373 414.833333333 395.333333333 404.5 408 c 4
 394.166666667 420.666666667 376.333333333 427 351 427 c 4
 323.666666667 427 296.166666667 421 268.5 409 c 4
 240.833333333 397 205.666666667 377.666666667 163 351 c 5
 163 0 l 5
 78 0 l 5
 78 700 l 5
 164 700 l 5
EndSplineSet
Fore
SplineSet
403 140 m 24
 340 47 262 0 156 0 c 0
 116 0 118 0 78 0 c 1
 78 77 l 1
 78 466 l 1
 78 500 l 1
 78 700 l 1
 164 700 l 1
 164 500 l 1
 164 78 l 1
 168 78 l 2
 242 78 292 111 332 178 c 0
 376 253 398 347 398 487 c 1
 487 487 l 24
 489 333 461 226 403 140 c 24
EndSplineSet
EndChar

StartChar: ty
Encoding: 21 60801 33
Width: 580
GlyphClass: 2
Flags: HW
HStem: 0 21G<76 161 418 504> 427 72<269.047 402.474>
VStem: 76 85<0 364.1 413.223 700> 418 86<0 407.399>
AnchorPoint: "Top" 342 658 basechar 0
AnchorPoint: "Bottom" 275 0 basechar 0
LayerCount: 2
Fore
SplineSet
162 700 m 5
 162 507 l 6
 162 469.666992188 160 438 156 412 c 5
 234.666992188 470 306.666992188 499 372 499 c 4
 460 499 504 454.333007812 504 365 c 6
 504 0 l 5
 418 0 l 5
 418 341 l 6
 418 373 412.833007812 395.333007812 402.5 408 c 4
 392.166992188 420.666992188 374.333007812 427 349 427 c 4
 321.666992188 427 294.166992188 421 266.5 409 c 4
 238.833007812 397 203.666992188 377.666992188 161 351 c 5
 161 0 l 5
 76 0 l 5
 76 700 l 5
 162 700 l 5
EndSplineSet
EndChar

StartChar: ky
Encoding: 22 60802 34
Width: 570
GlyphClass: 2
Flags: HW
HStem: 0 21G<76 177.103 410.336 494.336> 467 20G<395.683 494.336> 680 20G<77.2978 162.38>
VStem: 76 87.4385<113.344 700> 410.336 84<0 375.13>
AnchorPoint: "Top" 350.336 658 basechar 0
AnchorPoint: "Bottom" 223.336 0 basechar 0
LayerCount: 2
Fore
SplineSet
494.3359375 487 m 1
 494.3359375 0 l 1
 410.3359375 0 l 1
 411.3359375 306 l 0
 412.342773438 335.14453125 415.677734375 357.500976562 420.3359375 376 c 1
 163.438476562 0 l 0
 76 0 l 2
 77.3359375 700 l 1
 162.3359375 700 l 1
 163.438476562 198 l 4
 162.577148438 169.333007812 158.071289062 140.666992188 153.3359375 112 c 5
 409.3359375 487 l 1
 494.3359375 487 l 1
EndSplineSet
EndChar

StartChar: fy
Encoding: 23 60803 35
Width: 510
VWidth: 988
GlyphClass: 2
Flags: W
HStem: 0 69<144 461> 467 20G<211 295>
VStem: 211 84<220.011 487>
AnchorPoint: "Top" 254 658.316 basechar 0
AnchorPoint: "Bottom" 252 0.658203 basechar 0
LayerCount: 2
Back
SplineSet
295 0 m 5
 211 0 l 5
 211 487 l 5
 295 487 l 5
 295 0 l 5
461 69 m 5
 461 0 l 5
 49 0 l 5
 49 69 l 5
 362 417 l 5
 52 417 l 5
 52 487 l 5
 458 487 l 5
 458 417 l 5
 144 69 l 5
 461 69 l 5
EndSplineSet
Fore
SplineSet
211 301 m 27
 211 387 211 487 211 487 c 1
 295 487 l 1
 295 301 l 3
 295 209.561523438 227.020461625 114.578971218 144 69 c 1
 461 69 l 1
 461 0 l 1
 49 0 l 1
 49 69 l 1
 120.553491253 126.130368285 211 201 211 301 c 27
EndSplineSet
EndChar

StartChar: ly
Encoding: 24 60804 36
Width: 489
GlyphClass: 2
Flags: W
HStem: -12 72<199.605 441.969> 427 72<199.801 433.571>
VStem: 54 90<117.681 369.769>
AnchorPoint: "Top" 271 655 basechar 0
AnchorPoint: "Bottom" 263 0 basechar 0
LayerCount: 2
Fore
SplineSet
443 70 m 1
 452 13 l 1
 404 -3.66666666667 348.333333333 -12 285 -12 c 0
 201 -12 141.5 7.16666666667 106.5 45.5 c 0
 71.5 83.8333333333 54 150 54 244 c 0
 54 338 71.5 404 106.5 442 c 0
 141.5 480 201.333333333 499 286 499 c 0
 350 499 402.333333333 491.333333333 443 476 c 1
 432 421 l 1
 388 425 344 427 300 427 c 0
 241.333333333 427 200.666666667 414 178 388 c 0
 155.333333333 362 144 314 144 244 c 0
 144 173.333333333 155.333333333 125 178 99 c 0
 200.666666667 73 241.333333333 60 300 60 c 0
 353.333333333 60 401 63.3333333333 443 70 c 1
EndSplineSet
EndChar

StartChar: sy
Encoding: 25 60805 37
Width: 573
GlyphClass: 2
Flags: W
HStem: -12 74<184.823 328.114> 0 21G<425.714 494> 425 74<184.204 363.139>
VStem: 56 87<108.274 380.898> 409 85<114.532 403.583 455.377 700> 428 66<0 61.25>
AnchorPoint: "Top" 234 658 basechar 0
AnchorPoint: "Bottom" 276 0 basechar 0
LayerCount: 2
Fore
SplineSet
494 700 m 1xb8
 494 0 l 1
 428 0 l 1x74
 420 70 l 1
 358 15.3333333333 293.666666667 -12 227 -12 c 0
 167 -12 123.5 9.16666666667 96.5 51.5 c 0
 69.5 93.8333333333 56 158.333333333 56 245 c 0
 56 337.666666667 70.6666666667 403.166666667 100 441.5 c 0
 129.333333333 479.833333333 176 499 240 499 c 0
 303.333333333 499 361 484 413 454 c 1
 410.333333333 483.333333333 409 515.333333333 409 550 c 2
 409 700 l 1
 494 700 l 1xb8
409 129 m 1xb8
 409 398 l 1
 345 416 295.333333333 425 260 425 c 0
 216.666666667 425 186.333333333 412.666666667 169 388 c 0
 151.666666667 363.333333333 143 316 143 246 c 0
 143 176 151.5 127.833333333 168.5 101.5 c 0
 185.5 75.1666666667 214.333333333 62 255 62 c 0
 280.333333333 62 303.333333333 66.8333333333 324 76.5 c 0
 344.666666667 86.1666666667 373 103.666666667 409 129 c 1xb8
EndSplineSet
EndChar

StartChar: cy
Encoding: 26 60806 38
Width: 594
GlyphClass: 2
Flags: W
HStem: 0 21G<86 171 420 505> 419 80<261.081 400.164> 467 20G<86 154.105>
VStem: 86 85<0 367.926> 86 66<420.5 487> 420 85<0 398.401> 430 75<482 700>
AnchorPoint: "Top" 222 661 basechar 0
AnchorPoint: "Bottom" 283 0 basechar 0
LayerCount: 2
Fore
SplineSet
86 0 m 1xd4
 86 487 l 1
 152 487 l 1xa8
 160 411 l 1
 229.333007812 469.666992188 294.666992188 499 356 499 c 0
 386 499 412.666992188 493.666992188 436 481 c 1
 432 502.333007812 430 524.333007812 430 547 c 2
 430 700 l 1
 505 700 l 1xca
 505 0 l 1
 420 0 l 1
 420 341 l 2
 420.666992188 367 414 386.333007812 400 399 c 0
 386 411.666992188 364.666992188 419 336 419 c 0
 294.666992188 419 239.666992188 397.666992188 171 357 c 1
 171 0 l 1
 86 0 l 1xd4
EndSplineSet
EndChar

StartChar: my
Encoding: 27 60807 39
Width: 510
VWidth: 988
GlyphClass: 2
Flags: W
HStem: 0 69<144 461> 427 72<75.7209 367.35>
VStem: 376 83<319.226 416.826>
AnchorPoint: "Top" 261 658.658 basechar 0
AnchorPoint: "Bottom" 265 0 basechar 0
LayerCount: 2
Back
SplineSet
209 197 m 6
 349 229 l 6
 389 238.333007812 417.333007812 253.333007812 434 274 c 132
 450.666992188 294.666992188 459 325 459 365 c 4
 459 419 444.833007812 455.166992188 416.5 473.5 c 132
 388.166992188 491.833007812 339 500.333007812 269 499 c 4
 191 497.666992188 122.666992188 492.666992188 64 484 c 5
 71 422 l 5
 172.333007812 425.333007812 234 427 256 427 c 4
 305.333007812 427.666992188 337.666992188 424.666992188 353 418 c 132
 368.333007812 411.333007812 376 393.666992188 376 365 c 4
 376 341.666992188 370.833007812 325.666992188 360.5 317 c 132
 350.166992188 308.333007812 331.666992188 301 305 295 c 6
 163 263 l 6
 123 253 94.1669921875 238.166992188 76.5 218.5 c 132
 58.8330078125 198.833007812 50 169 50 129 c 4
 50 72.3330078125 65.6669921875 34.8330078125 97 16.5 c 132
 128.333007812 -1.8330078125 182 -11 258 -11 c 4
 326 -11 389.666992188 -6.3330078125 449 3 c 5
 443 65 l 5
 386.333007812 61.6669921875 330.333007812 60.3330078125 275 61 c 4
 218.333007812 61 180.333007812 65.3330078125 161 74 c 132
 141.666992188 82.6669921875 132 101 132 129 c 4
 132 151 137.833007812 166.166992188 149.5 174.5 c 132
 161.166992188 182.833007812 181 190.333007812 209 197 c 6
461 69 m 5
 461 0 l 5
 49 0 l 5
 49 69 l 5
 362 417 l 5
 52 417 l 5
 52 487 l 5
 458 487 l 5
 458 417 l 5
 144 69 l 5
 461 69 l 5
EndSplineSet
Fore
SplineSet
459 365 m 3
 459 225.910101014 211 126 144 69 c 1
 461 69 l 1
 461 0 l 1
 49 0 l 1
 49 69 l 1
 109 160 376 277.977014531 376 365 c 3
 376 393.666992187 368.333007812 411.333007812 353 418 c 0
 337.666992188 424.666992188 305.333007812 427.666992188 256 427 c 0
 234 427 172.333007812 425.333007812 71 422 c 1
 64 484 l 1
 122.666992188 492.666992188 191 497.666992188 269 499 c 0
 339 500.333007812 388.166992188 491.833007812 416.5 473.5 c 0
 444.833007812 455.166992188 459 419 459 365 c 3
EndSplineSet
EndChar

StartChar: xy
Encoding: 28 60808 40
Width: 568
GlyphClass: 2
Flags: W
HStem: -13 72<193.305 375.118> 427 72<193.305 375.118>
VStem: 55 89<111.634 374.366> 425 88<111.634 374.366>
AnchorPoint: "Top" 282 656 basechar 0
AnchorPoint: "Bottom" 281 0 basechar 0
LayerCount: 2
Fore
SplineSet
284 499 m 0
 368 499 427.166666667 479.666666667 461.5 441 c 0
 495.833333333 402.333333333 513 336.333333333 513 243 c 0
 513 149.666666667 495.833333333 83.6666666667 461.5 45 c 0
 427.166666667 6.33333333333 368 -13 284 -13 c 0
 200.666666667 -13 141.666666667 6.33333333333 107 45 c 0
 72.3333333333 83.6666666667 55 149.666666667 55 243 c 0
 55 336.333333333 72.3333333333 402.333333333 107 441 c 0
 141.666666667 479.666666667 200.666666667 499 284 499 c 0
284 427 m 0
 230.666666667 427 194 414 174 388 c 0
 154 362 144 313.666666667 144 243 c 0
 144 172.333333333 154 124 174 98 c 0
 194 72 230.666666667 59 284 59 c 0
 337.333333333 59 374.166666667 72 394.5 98 c 0
 414.833333333 124 425 172.333333333 425 243 c 0
 425 313.666666667 414.833333333 362 394.5 388 c 0
 374.166666667 414 337.333333333 427 284 427 c 0
EndSplineSet
EndChar

StartChar: denpabu
Encoding: 29 60809 41
Width: 236
GlyphClass: 2
Flags: W
HStem: 199 118<79.7367 156.263>
VStem: 72 92<206.221 309.263>
AnchorPoint: "Top" 118 657 basechar 0
AnchorPoint: "Bottom" 120 0 basechar 0
LayerCount: 2
Fore
SplineSet
104 317 m 2
 132 317 l 2
 143.333333333 317 151.5 314.5 156.5 309.5 c 0
 161.5 304.5 164 296.333333333 164 285 c 2
 164 230 l 2
 164 218.666666667 161.5 210.666666667 156.5 206 c 0
 151.5 201.333333333 143.333333333 199 132 199 c 2
 104 199 l 2
 92.6666666667 199 84.5 201.333333333 79.5 206 c 0
 74.5 210.666666667 72 218.666666667 72 230 c 2
 72 285 l 2
 72 296.333333333 74.5 304.5 79.5 309.5 c 0
 84.5 314.5 92.6666666667 317 104 317 c 2
EndSplineSet
Substitution2: "Single Substitution lookup 73 subtable" denpabu.cas
EndChar

StartChar: yhy
Encoding: 30 60810 42
Width: 248
GlyphClass: 2
Flags: W
HStem: 0 21G<82 166> 467 20G<82 166>
VStem: 82 84<0 487>
AnchorPoint: "Top" 125 656 basechar 0
AnchorPoint: "Bottom" 119 0 basechar 0
LayerCount: 2
Fore
SplineSet
166 0 m 1
 82 0 l 1
 82 487 l 1
 166 487 l 1
 166 0 l 1
EndSplineSet
Substitution2: "Single Substitution lookup 75 subtable" yhy.cas
Substitution2: "Single Substitution lookup 74 subtable" yhy.cas
EndChar

StartChar: cnimahobu
Encoding: 31 60811 43
Width: 464
VWidth: 988
GlyphClass: 2
Flags: W
HStem: 0 21G<306 394> 306 87<27.1897 209.657> 480 20G<304 394>
VStem: 306 88<0 415>
LayerCount: 2
Fore
SplineSet
306 0 m 1
 306 415 l 1
 293 387 267 360 224 335 c 0
 191 316 151 306 102 306 c 0
 86 306 70 308 56 310 c 0
 42 312 29 315 18 320 c 1
 27 386 l 1
 31 395 38 399 50 399 c 0
 57 399 67 398 80 396 c 0
 93 394 108 393 124 393 c 0
 148 393 169 395 187 400 c 0
 205 405 221 412 236 421 c 0
 250 430 264 441 275 454 c 0
 292 474 302 489 306 500 c 1
 394 500 l 1
 394 0 l 1
 306 0 l 1
EndSplineSet
EndChar

StartChar: patonga
Encoding: 32 60812 44
Width: 0
VWidth: 988
GlyphClass: 4
Flags: W
HStem: -204 141
VStem: -359 198
AnchorPoint: "Bottom" -260 0 mark 0
LayerCount: 2
Fore
SplineSet
-161 -63 m 5
 -276 -190 l 6
 -281 -195 -286 -199 -290 -201 c 4
 -294 -203 -300 -204 -307 -204 c 6
 -359 -204 l 5
 -286 -84 l 6
 -281 -76 -276 -71 -271 -68 c 4
 -266 -65 -258 -63 -247 -63 c 6
 -161 -63 l 5
EndSplineSet
EndChar

StartChar: retonga
Encoding: 33 60813 45
Width: 0
VWidth: 988
GlyphClass: 4
Flags: W
HStem: -204 141
VStem: -348 196
AnchorPoint: "Bottom" -250 0 mark 0
LayerCount: 2
Fore
SplineSet
-265 -63 m 6
 -254 -63 -245 -65 -240 -68 c 4
 -235 -71 -231 -76 -226 -84 c 6
 -152 -204 l 5
 -202 -204 l 6
 -209 -204 -215 -203 -219 -201 c 4
 -223 -199 -227 -195 -232 -190 c 6
 -348 -63 l 5
 -265 -63 l 6
EndSplineSet
EndChar

StartChar: citonga
Encoding: 34 60814 46
Width: 0
VWidth: 988
GlyphClass: 4
Flags: W
HStem: -199 130
VStem: -420 302
AnchorPoint: "Bottom" -269 0 mark 0
LayerCount: 2
Fore
SplineSet
-118 -199 m 5
 -177 -199 l 6
 -181 -199 -183 -199 -187 -197 c 4
 -191 -195 -194 -194 -196 -192 c 6
 -260 -125 l 6
 -262 -123 -263 -122 -264 -120 c 4
 -265 -118 -266 -117 -268 -115 c 5
 -270 -117 -271 -118 -272 -120 c 4
 -273 -122 -274 -123 -276 -125 c 6
 -340 -192 l 6
 -342 -194 -344 -195 -348 -197 c 4
 -352 -199 -355 -199 -359 -199 c 6
 -420 -199 l 5
 -310 -69 l 5
 -228 -69 l 5
 -118 -199 l 5
EndSplineSet
EndChar

StartChar: votonga
Encoding: 35 60815 47
Width: 0
VWidth: 988
GlyphClass: 4
Flags: W
HStem: -194 130
VStem: -421 302
AnchorPoint: "Bottom" -270 0 mark 0
LayerCount: 2
Fore
SplineSet
-119 -64 m 1
 -229 -194 l 1
 -311 -194 l 1
 -421 -64 l 1
 -360 -64 l 2
 -356 -64 -353 -64 -349 -66 c 0
 -345 -68 -343 -69 -341 -71 c 2
 -277 -138 l 2
 -275 -140 -274 -141 -273 -143 c 0
 -272 -145 -271 -146 -269 -148 c 1
 -267 -146 -266 -145 -265 -143 c 0
 -264 -141 -263 -140 -261 -138 c 2
 -197 -71 l 2
 -195 -69 -192 -68 -188 -66 c 0
 -184 -64 -182 -64 -178 -64 c 2
 -119 -64 l 1
EndSplineSet
EndChar

StartChar: by
Encoding: 36 60816 48
Width: 509
VWidth: 988
GlyphClass: 2
Flags: W
HStem: 0 21G<27 117> 410 77<250.792 357>
VStem: 28 89<0 205.104> 357 86<-201 410>
AnchorPoint: "Top" 348 654 basechar 0
AnchorPoint: "Bottom" 213 0 basechar 0
LayerCount: 2
Back
SplineSet
492 487 m 5
 492 -201 l 5
 408 -201 l 5
 409 0 l 4
 410.007291189 29.1446409611 413.342180542 51.5013413611 418 70 c 5
 344.666666667 14.6666666667 274.666666667 -13 208 -13 c 4
 119.333333333 -13 75 31.6666666667 75 121 c 6
 75 487 l 5
 160 487 l 5
 160 145 l 6
 159.333333333 114.333333333 165 92.6666666667 177 80 c 4
 189 67.3333333333 209 61 237 61 c 4
 261.666666667 61 286.666666667 66.5 312 77.5 c 4
 337.333333333 88.5 369 106.333333333 407 131 c 5
 407 487 l 5
 492 487 l 5
EndSplineSet
Fore
SplineSet
112 361 m 24
 175 454 259 487 365 487 c 0
 405 487 403 487 443 487 c 1
 443 410 l 1
 443 35 l 1
 443 0 l 1
 443 -201 l 1
 357 -201 l 1
 357 0 l 1
 357 410 l 1
 353 410 l 2
 279 410 223 389 183 322 c 0
 139 247 117 140 117 0 c 1
 28 0 l 24
 26 154 54 275 112 361 c 24
EndSplineSet
EndChar

StartChar: dy
Encoding: 37 60817 49
Width: 569
GlyphClass: 2
Flags: HW
HStem: -13 74<178.198 312.846> 467 20G<76 161 408 493>
VStem: 76 85<80.6003 487> 408 85<-201 69.13 117.846 487>
AnchorPoint: "Top" 271 657 basechar 0
AnchorPoint: "Bottom" 222 0 basechar 0
LayerCount: 2
Back
SplineSet
495 -201 m 5
 409 -201 l 5
 409 -34 l 6
 409 8 411.666992188 41.3330078125 417 66 c 5
 353.666992188 13.3330078125 289 -13 223 -13 c 4
 166.333007812 -13 124.333007812 7.5 97 48.5 c 132
 69.6669921875 89.5 56 154 56 242 c 4
 56 330.666992188 72 395.666992188 104 437 c 132
 136 478.333007812 193 499 275 499 c 4
 355 499 428.333007812 487.666992188 495 465 c 5
 495 -201 l 5
410 128 m 5
 410 410 l 5
 364.666992188 422.666992188 319.333007812 428.333007812 274 427 c 4
 224.666992188 425.666992188 190.5 411.833007812 171.5 385.5 c 132
 152.5 359.166992188 143 309.333007812 143 236 c 4
 143 174 150.666992188 129.5 166 102.5 c 132
 181.333007812 75.5 209.666992188 62 251 62 c 4
 277.666992188 62 302.5 67.1669921875 325.5 77.5 c 132
 348.5 87.8330078125 376.666992188 104.666992188 410 128 c 5
EndSplineSet
Fore
SplineSet
493 487 m 1
 493 -201 l 1
 409 -201 l 1
 410 0 l 0
 411.006835938 29.14453125 414.341796875 51.5009765625 419 70 c 1
 345.666992188 14.6669921875 275.666992188 -13 209 -13 c 0
 120.333007812 -13 76 31.6669921875 76 121 c 2
 76 487 l 1
 161 487 l 1
 161 145 l 2
 160.333007812 114.333007812 166 92.6669921875 178 80 c 0
 190 67.3330078125 210 61 238 61 c 0
 262.666992188 61 287.666992188 66.5 313 77.5 c 0
 338.333007812 88.5 370 106.333007812 408 131 c 1
 408 487 l 1
 493 487 l 1
EndSplineSet
EndChar

StartChar: gy
Encoding: 38 60818 50
Width: 570
GlyphClass: 2
Flags: HW
HStem: -201 21G<410.336 494.336> 0 21G<76 177.103> 467 20G<77.2811 162.412 395.683 494.336>
VStem: 76 87.4385<113.344 487> 410.336 84<-201 375.13>
AnchorPoint: "Top" 272.336 657 basechar 0
AnchorPoint: "Bottom" 223.336 0 basechar 0
LayerCount: 2
Fore
SplineSet
494.3359375 487 m 1
 494.3359375 -201 l 1
 410.3359375 -201 l 1
 411.3359375 306 l 0
 412.342773438 335.14453125 415.677734375 357.500976562 420.3359375 376 c 1
 163.438476562 0 l 0
 76 0 l 2
 77.3359375 487 l 1
 162.3359375 487 l 1
 163.438476562 198 l 0
 162.577148438 169.333007812 158.071289062 140.666992188 153.3359375 112 c 1
 409.3359375 487 l 1
 494.3359375 487 l 1
EndSplineSet
EndChar

StartChar: vy
Encoding: 39 60819 51
Width: 510
GlyphClass: 2
Flags: W
HStem: 0 21G<211 295> 417 70<52 362>
VStem: 211 84<0 264.813>
AnchorPoint: "Top" 254 656.658 basechar 0
AnchorPoint: "Bottom" 252 -0.341797 basechar 0
LayerCount: 2
Back
SplineSet
295 0 m 5
 211 0 l 5
 211 487 l 5
 295 487 l 5
 295 0 l 5
461 69 m 5
 461 0 l 5
 49 0 l 5
 49 69 l 5
 362 417 l 5
 52 417 l 5
 52 487 l 5
 458 487 l 5
 458 417 l 5
 144 69 l 5
 461 69 l 5
EndSplineSet
Fore
SplineSet
211 202 m 27
 211 290 362 417 362 417 c 1
 52 417 l 1
 52 487 l 1
 458 487 l 1
 458 417 l 1
 458 417 295 293 295 202 c 27
 295 105 295 0 295 0 c 1
 211 0 l 1
 211 0 211 105 211 202 c 27
EndSplineSet
EndChar

StartChar: ry
Encoding: 40 60820 52
Width: 489
GlyphClass: 2
Flags: W
HStem: -12 72<64.0314 306.394> 427 72<72.4291 306.199>
VStem: 362 90<117.681 369.769>
AnchorPoint: "Top" 246 656 basechar 0
AnchorPoint: "Bottom" 233 0 basechar 0
LayerCount: 2
Back
SplineSet
55 417 m 5
 46 476 l 5
 86.6666666667 487.333333333 142 493 212 493 c 4
 300 493 361.666666667 474.5 397 437.5 c 132
 432.333333333 400.5 450 335 450 241 c 4
 450 148.333333333 432.333333333 83.3333333333 397 46 c 132
 361.666666667 8.66666666667 300 -10 212 -10 c 4
 142.666666667 -10 85.6666666667 -3.66666666667 41 9 c 5
 50 69 l 5
 106 64.3333333333 160 62 212 62 c 4
 266.666666667 62 305 72.8333333333 327 94.5 c 132
 349 116.166666667 361.333333333 156.666666667 364 216 c 5
 116 216 l 5
 116 280 l 5
 363 280 l 5
 359.666666667 334 346.666666667 371.166666667 324 391.5 c 132
 301.333333333 411.833333333 264 422 212 422 c 4
 165.333333333 422 113 420.333333333 55 417 c 5
EndSplineSet
Fore
SplineSet
63 70 m 1
 54 13 l 1
 102 -3.6669921875 157.666992188 -12 221 -12 c 0
 305 -12 364.5 7.1669921875 399.5 45.5 c 0
 434.5 83.8330078125 452 150 452 244 c 0
 452 338 434.5 404 399.5 442 c 0
 364.5 480 304.666992188 499 220 499 c 0
 156 499 103.666992188 491.333007812 63 476 c 1
 74 421 l 1
 118 425 162 427 206 427 c 0
 264.666992188 427 305.333007812 414 328 388 c 0
 350.666992188 362 362 314 362 244 c 0
 362 173.333007812 350.666992188 125 328 99 c 0
 305.333007812 73 264.666992188 60 206 60 c 0
 152.666992188 60 105 63.3330078125 63 70 c 1
EndSplineSet
EndChar

StartChar: zy
Encoding: 41 60821 53
Width: 580
GlyphClass: 2
Flags: W
HStem: -12 74<219.25 395.769> 425 74<254.412 395.595> 467 20G<78 149.795>
VStem: 78 85<-201 36.9302 85.7964 365.322> 78 70<409 487> 437 87<106.02 378.178>
AnchorPoint: "Top" 282 658 basechar 0
AnchorPoint: "Bottom" 341 0 basechar 0
LayerCount: 2
Fore
SplineSet
148 487 m 1xac
 155 409 l 1
 181 437 212.333333333 459 249 475 c 0
 285.666666667 491 321.666666667 499 357 499 c 0
 415 499 457.333333333 477.666666667 484 435 c 0
 510.666666667 392.333333333 524 327.666666667 524 241 c 0
 524 149 509.333333333 83.8333333333 480 45.5 c 0
 450.666666667 7.16666666667 404 -12 340 -12 c 0
 276 -12 216 4.66666666667 160 38 c 1
 162 15.3333333333 163 -17.3333333333 163 -60 c 2
 163 -201 l 1
 78 -201 l 1xd4
 78 487 l 1
 148 487 l 1xac
163 350 m 1
 163 92 l 1
 231 72 283 62 319 62 c 0
 363 62 393.666666667 74.3333333333 411 99 c 0
 428.333333333 123.666666667 437 171 437 241 c 0
 437 309 428.833333333 356.666666667 412.5 384 c 0
 396.166666667 411.333333333 368.333333333 425 329 425 c 0
 303.666666667 425 278.5 419.166666667 253.5 407.5 c 0
 228.5 395.833333333 198.333333333 376.666666667 163 350 c 1
EndSplineSet
EndChar

StartChar: jy
Encoding: 42 60822 54
Width: 594
GlyphClass: 2
Flags: W
HStem: -13 81<190.217 328.389> 0 21G<436.867 505> 467 20G<86 171 420 505>
VStem: 86 85<87.5986 487> 86 75<-201 4.99951> 420 85<118.099 487> 439 66<0 65.625>
AnchorPoint: "Top" 274 658 basechar 0
AnchorPoint: "Bottom" 348 0 basechar 0
LayerCount: 2
Fore
SplineSet
505 487 m 5xb4
 505 0 l 5
 439 0 l 5x62
 431 75 l 5
 361.666666667 16.3333333333 296.333333333 -13 235 -13 c 4
 205 -13 178.333333333 -6.66666666667 155 6 c 5
 159 -15.3333333333 161 -37.3333333333 161 -60 c 6
 161 -201 l 5
 86 -201 l 5xaa
 86 487 l 5
 171 487 l 5
 171 145 l 6
 170.333333333 119 177 99.6666666667 191 87 c 4
 205 74.3333333333 226.333333333 68 255 68 c 4
 296.333333333 68 351.333333333 88.3333333333 420 129 c 5
 420 487 l 5
 505 487 l 5xb4
EndSplineSet
EndChar

StartChar: ny
Encoding: 43 60823 55
Width: 510
VWidth: 988
GlyphClass: 2
Flags: W
HStem: -11 72<148.581 440.344> 417 70<52 362>
VStem: 50 82<78.8196 169.578>
AnchorPoint: "Top" 260 656.658 basechar 0
AnchorPoint: "Bottom" 247 -1 basechar 0
LayerCount: 2
Back
SplineSet
209 197 m 2
 349 229 l 2
 389 238.333007812 417.333007812 253.333007812 434 274 c 128
 450.666992188 294.666992188 459 325 459 365 c 0
 459 419 444.833007812 455.166992188 416.5 473.5 c 128
 388.166992188 491.833007812 339 500.333007812 269 499 c 0
 191 497.666992188 122.666992188 492.666992188 64 484 c 1
 71 422 l 1
 172.333007812 425.333007812 234 427 256 427 c 0
 305.333007812 427.666992188 337.666992188 424.666992188 353 418 c 128
 368.333007812 411.333007812 376 393.666992188 376 365 c 0
 376 341.666992188 370.833007812 325.666992188 360.5 317 c 128
 350.166992188 308.333007812 331.666992188 301 305 295 c 2
 163 263 l 2
 123 253 94.1669921875 238.166992188 76.5 218.5 c 128
 58.8330078125 198.833007812 50 169 50 129 c 0
 50 72.3330078125 65.6669921875 34.8330078125 97 16.5 c 128
 128.333007812 -1.8330078125 182 -11 258 -11 c 0
 326 -11 389.666992188 -6.3330078125 449 3 c 1
 443 65 l 1
 386.333007812 61.6669921875 330.333007812 60.3330078125 275 61 c 0
 218.333007812 61 180.333007812 65.3330078125 161 74 c 128
 141.666992188 82.6669921875 132 101 132 129 c 0
 132 151 137.833007812 166.166992188 149.5 174.5 c 128
 161.166992188 182.833007812 181 190.333007812 209 197 c 2
461 69 m 1
 461 0 l 1
 49 0 l 1
 49 69 l 1
 362 417 l 1
 52 417 l 1
 52 487 l 1
 458 487 l 1
 458 417 l 1
 144 69 l 1
 461 69 l 1
EndSplineSet
Fore
SplineSet
362 417 m 1
 52 417 l 1
 52 487 l 1
 458 487 l 1
 458 417 l 1
 376 314 132 203.006756448 132 129 c 3
 132 101 141.666992188 82.6669921875 161 74 c 0
 180.333007812 65.3330078125 218.333007812 61 275 61 c 0
 330.333007812 60.3330078125 386.333007812 61.6669921875 443 65 c 1
 449 3 l 1
 389.666992188 -6.3330078125 326 -11 258 -11 c 0
 182 -11 128.333007812 -1.8330078125 97 16.5 c 0
 65.6669921875 34.8330078125 50 72.3330078125 50 129 c 3
 50 253.036285014 298 357 362 417 c 1
EndSplineSet
EndChar

StartChar: bahebu
Encoding: 44 60824 56
Width: 0
VWidth: 0
GlyphClass: 4
Flags: W
HStem: -194 124<-309.03 -214.583>
VStem: -323 123<-179.661 -84.3391>
AnchorPoint: "Bottom" -262 0 mark 0
LayerCount: 2
Fore
SplineSet
-323 -132 m 4
 -323 -123 -322 -116 -319 -108 c 4
 -316 -100 -311 -94 -306 -88 c 4
 -301 -82 -294 -78 -286 -75 c 4
 -278 -72 -271 -70 -262 -70 c 260
 -253 -70 -246 -72 -238 -75 c 4
 -230 -78 -224 -82 -218 -88 c 4
 -212 -94 -208 -100 -205 -108 c 4
 -202 -116 -200 -123 -200 -132 c 4
 -200 -141 -202 -149 -205 -156 c 4
 -208 -163 -212 -170 -218 -176 c 4
 -224 -182 -230 -186 -238 -189 c 4
 -246 -192 -253 -194 -262 -194 c 260
 -271 -194 -278 -192 -286 -189 c 4
 -294 -186 -301 -182 -306 -176 c 4
 -311 -170 -316 -163 -319 -156 c 4
 -322 -149 -323 -141 -323 -132 c 4
EndSplineSet
EndChar

StartChar: smajibu
Encoding: 45 60825 57
Width: 416
VWidth: 988
GlyphClass: 2
Flags: W
HStem: 224 74<70 343>
VStem: 70 273<224 298>
LayerCount: 2
Fore
SplineSet
70 298 m 1
 343 298 l 1
 343 224 l 1
 70 224 l 1
 70 298 l 1
EndSplineSet
Substitution2: "Single Substitution lookup 60 subtable" smajibu.fina
Substitution2: "Single Substitution lookup 59 subtable" smajibu.fina
Substitution2: "Single Substitution lookup 58 subtable" smajibu.fina
Substitution2: "Single Substitution lookup 56 subtable" smajibu.medi
Substitution2: "Single Substitution lookup 55 subtable" smajibu.medi
Substitution2: "Single Substitution lookup 54 subtable" smajibu.medi
Substitution2: "Single Substitution lookup 53 subtable" smajibu.medi
Substitution2: "Single Substitution lookup 52 subtable" smajibu.medi
Substitution2: "Single Substitution lookup 51 subtable" smajibu.medi
Substitution2: "Single Substitution lookup 49 subtable" smajibu.init
Substitution2: "Single Substitution lookup 48 subtable" smajibu.init
Substitution2: "Single Substitution lookup 47 subtable" smajibu.init
EndChar

StartChar: tcenabu
Encoding: 47 60827 59
Width: 0
VWidth: 988
GlyphClass: 4
Flags: W
HStem: -169 74<-528 2>
AnchorPoint: "Bottom" -263 0 mark 0
LayerCount: 2
Fore
SplineSet
-528 -95 m 1
 2 -95 l 1
 2 -169 l 1
 -528 -169 l 1
 -528 -95 l 1
EndSplineSet
EndChar

StartChar: abu
Encoding: 52 60832 64
Width: 0
VWidth: 988
GlyphClass: 4
Flags: W
HStem: 582 234<-22.9126 23.791>
VStem: -33 67<624.5 816>
AnchorPoint: "Top" 0 657 mark 0
LayerCount: 2
Fore
SplineSet
34 816 m 1
 34 691 l 1
 26 615 l 2
 25 605 22 597 17 590 c 0
 14 584 8 582 0 582 c 0
 -7 582 -12 584 -16 590 c 0
 -21 596 -24 605 -25 615 c 2
 -33 691 l 1
 -33 816 l 1
 34 816 l 1
EndSplineSet
MultipleSubs2: "Multiple Substitution lookup 62 subtable" denpabu abu
EndChar

StartChar: ebu
Encoding: 53 60833 65
Width: 0
VWidth: 988
GlyphClass: 4
Flags: W
HStem: 625 60<-122 122>
VStem: -122 244<625 685>
AnchorPoint: "Top" 0 657 mark 0
LayerCount: 2
Fore
SplineSet
-122 685 m 5
 122 685 l 5
 122 625 l 5
 -122 625 l 5
 -122 685 l 5
EndSplineSet
MultipleSubs2: "Multiple Substitution lookup 63 subtable" denpabu ebu
EndChar

StartChar: ibu
Encoding: 54 60834 66
Width: 0
GlyphClass: 4
Flags: W
HStem: 585 109<-45.7715 45.7715>
VStem: -46 92<585.229 693.771>
AnchorPoint: "Top" 0 657 mark 0
LayerCount: 2
Fore
SplineSet
-20 694 m 2
 20 694 l 2
 37.3330078125 694 46 685.333007812 46 668 c 2
 46 611 l 2
 46 593.666992188 37.3330078125 585 20 585 c 2
 -20 585 l 2
 -37.3330078125 585 -46 593.666992188 -46 611 c 2
 -46 668 l 2
 -46 685.333007812 -37.3330078125 694 -20 694 c 2
EndSplineSet
MultipleSubs2: "Multiple Substitution lookup 64 subtable" denpabu ibu
Substitution2: "Single Substitution lookup 33 subtable" iy
Substitution2: "Single Substitution lookup 32 subtable" iy
Substitution2: "Single Substitution lookup 31 subtable" iy
Substitution2: "Single Substitution lookup 30 subtable" iy
Substitution2: "Single Substitution lookup 29 subtable" iy
Substitution2: "Single Substitution lookup 28 subtable" iy
Substitution2: "Single Substitution lookup 27 subtable" iy
Substitution2: "Single Substitution lookup 26 subtable" iy
Substitution2: "Single Substitution lookup 25 subtable" iy
Substitution2: "Single Substitution lookup 24 subtable" iy
Substitution2: "Single Substitution lookup 13 subtable" iy
Substitution2: "Single Substitution lookup 12 subtable" iy
Substitution2: "Single Substitution lookup 11 subtable" iy
Substitution2: "Single Substitution lookup 10 subtable" iy
Substitution2: "Single Substitution lookup 9 subtable" iy
Substitution2: "Single Substitution lookup 8 subtable" iy
Substitution2: "Single Substitution lookup 7 subtable" iy
Substitution2: "Single Substitution lookup 6 subtable" iy
Substitution2: "Single Substitution lookup 5 subtable" iy
Substitution2: "Single Substitution lookup 4 subtable" iy
EndChar

StartChar: obu
Encoding: 55 60835 67
Width: 0
VWidth: 988
GlyphClass: 4
Flags: W
HStem: 593 58<0.318359 62.3726> 644 58<-73.5814 -15.6011>
VStem: -127 49<595 641.178> 67 48<654.181 699>
AnchorPoint: "Top" 0 657 mark 0
LayerCount: 2
Fore
SplineSet
30 651 m 0xb0
 54 651 66 667 67 699 c 1
 115 699 l 1
 115 650 99 617 68 601 c 0
 57 596 46 593 33 593 c 0xb0
 3 593 -13 623 -30 637 c 0
 -36 642 -42 644 -47 644 c 0
 -67 644 -77 627 -78 595 c 1
 -127 595 l 1
 -127 642 -113 673 -84 689 c 4
 -73 697 -61 702 -49 702 c 0x70
 -30 702 -16 689 -5 679 c 0
 6 666 12 659 13 658 c 0
 18 653 24 651 30 651 c 0xb0
EndSplineSet
MultipleSubs2: "Multiple Substitution lookup 65 subtable" denpabu obu
EndChar

StartChar: ubu
Encoding: 56 60836 68
Width: 0
VWidth: 988
GlyphClass: 4
Flags: W
HStem: 588 46<-56.5908 56.5908>
VStem: -118 50<646.724 705> 68 50<647.164 705>
AnchorPoint: "Top" 0 657 mark 0
LayerCount: 2
Fore
SplineSet
0 634 m 256
 54 634 68 659 68 705 c 1
 118 705 l 1
 118 630 83 588 0 588 c 0
 -83 588 -118 629 -118 705 c 1
 -68 705 l 1
 -68 659 -54 634 0 634 c 256
EndSplineSet
MultipleSubs2: "Multiple Substitution lookup 66 subtable" denpabu ubu
Substitution2: "Single Substitution lookup 43 subtable" uy
Substitution2: "Single Substitution lookup 42 subtable" uy
Substitution2: "Single Substitution lookup 41 subtable" uy
Substitution2: "Single Substitution lookup 40 subtable" uy
Substitution2: "Single Substitution lookup 39 subtable" uy
Substitution2: "Single Substitution lookup 38 subtable" uy
Substitution2: "Single Substitution lookup 37 subtable" uy
Substitution2: "Single Substitution lookup 36 subtable" uy
Substitution2: "Single Substitution lookup 35 subtable" uy
Substitution2: "Single Substitution lookup 34 subtable" uy
Substitution2: "Single Substitution lookup 23 subtable" uy
Substitution2: "Single Substitution lookup 22 subtable" uy
Substitution2: "Single Substitution lookup 21 subtable" uy
Substitution2: "Single Substitution lookup 20 subtable" uy
Substitution2: "Single Substitution lookup 19 subtable" uy
Substitution2: "Single Substitution lookup 18 subtable" uy
Substitution2: "Single Substitution lookup 17 subtable" uy
Substitution2: "Single Substitution lookup 16 subtable" uy
Substitution2: "Single Substitution lookup 15 subtable" uy
Substitution2: "Single Substitution lookup 14 subtable" uy
EndChar

StartChar: ybu
Encoding: 57 60837 69
Width: 0
VWidth: 988
GlyphClass: 4
Flags: W
HStem: 566 42<-39.4491 38.5135> 707 43<-39.7211 38.5135>
VStem: -99 49<618.923 696.077> 49 50<618.923 696.077>
AnchorPoint: "Top" 0 657 mark 0
LayerCount: 2
Fore
SplineSet
-99 657 m 0
 -99 671 -96 684 -91 695 c 0
 -86 706 -79 716 -70 724 c 0
 -61 732 -51 739 -39 743 c 0
 -27 747 -14 750 -1 750 c 0
 13 750 25 747 37 743 c 0
 49 739 60 732 69 724 c 0
 78 716 86 706 91 695 c 0
 96 684 99 671 99 657 c 0
 99 643 96 631 91 620 c 0
 86 609 78 599 69 591 c 0
 60 583 49 577 37 573 c 0
 25 569 13 566 -1 566 c 0
 -14 566 -27 569 -39 573 c 0
 -51 577 -61 583 -70 591 c 0
 -79 599 -86 609 -91 620 c 0
 -96 631 -99 643 -99 657 c 0
-50 657 m 0
 -50 643 -46 631 -37 622 c 0
 -28 613 -15 608 0 608 c 0
 15 608 27 613 36 622 c 0
 45 631 49 643 49 657 c 0
 49 672 45 684 36 693 c 0
 27 702 15 707 0 707 c 0
 -15 707 -28 702 -37 693 c 0
 -46 684 -50 672 -50 657 c 0
EndSplineSet
MultipleSubs2: "Multiple Substitution lookup 67 subtable" denpabu ybu
EndChar

StartChar: aibu
Encoding: 58 60838 70
Width: 0
VWidth: 0
GlyphClass: 4
Flags: W
HStem: 569 39<-42 4.33428> 738 38<14.418 61>
VStem: -44 57<681.222 734.463> 6 58<611.127 667.254>
AnchorPoint: "Top" 0 657 mark 0
LayerCount: 2
Fore
SplineSet
13 711 m 0xe0
 13 705 16 699 21 694 c 0
 22 693 28 687 41 676 c 0
 47 670 52 663 57 656 c 0
 62 649 64 641 64 632 c 0
 64 623 61 615 56 607 c 0
 39 582 7 569 -42 569 c 1
 -42 608 l 1
 -10 608 6 618 6 635 c 0xd0
 6 640 4 646 -1 652 c 0
 -6 658 -12 664 -19 670 c 0
 -26 676 -32 683 -37 690 c 0
 -42 697 -44 705 -44 714 c 0
 -44 723 -42 731 -37 739 c 0
 -21 764 12 776 61 776 c 1
 61 738 l 1
 29 737 13 728 13 711 c 0xe0
EndSplineSet
MultipleSubs2: "Multiple Substitution lookup 68 subtable" denpabu aibu
Ligature2: "zlmVV subtable" abu ibu
LCarets2: 1 0
EndChar

StartChar: eibu
Encoding: 59 60839 71
Width: 0
VWidth: 0
GlyphClass: 4
Flags: W
HStem: 649 46<-49.5944 49.5944>
VStem: -108 50<588 639.781> 58 50<588 639.781>
AnchorPoint: "Top" 0 657 mark 0
LayerCount: 2
Fore
SplineSet
0 695 m 4
 20 695 37 692 51 686 c 4
 65 680 75 673 84 663 c 4
 93 653 99 643 103 630 c 4
 107 617 108 602 108 588 c 5
 58 588 l 5
 58 597 58 605 56 613 c 4
 54 621 50 627 46 632 c 4
 42 637 36 641 28 644 c 4
 20 647 11 649 0 649 c 260
 -11 649 -20 647 -28 644 c 4
 -36 641 -42 637 -46 632 c 4
 -50 627 -54 621 -56 613 c 4
 -58 605 -58 597 -58 588 c 5
 -108 588 l 5
 -108 602 -107 617 -103 630 c 4
 -99 643 -93 653 -84 663 c 4
 -75 673 -65 680 -51 686 c 4
 -37 692 -20 695 0 695 c 4
EndSplineSet
MultipleSubs2: "Multiple Substitution lookup 69 subtable" denpabu eibu
Ligature2: "zlmVV subtable" ebu ibu
LCarets2: 1 0
EndChar

StartChar: oibu
Encoding: 60 60840 72
Width: 0
VWidth: 988
GlyphClass: 4
Flags: W
HStem: 578 201
VStem: -117 49<580 623.605> 61 39<636.19 683>
AnchorPoint: "Top" 0 657 mark 0
LayerCount: 2
Fore
SplineSet
-49 663 m 1
 -18 693 6 644 34 636 c 0
 54 631 60 661 61 683 c 1
 100 683 l 1
 99 640 88 603 62 586 c 0
 54 581 46 578 37 578 c 0
 18 578 4 592 -7 601 c 0
 -16 609 -29 624 -42 624 c 0
 -59 624 -68 609 -68 580 c 1
 -117 580 l 1
 -118 643 -72 726 -32 779 c 1
 7 750 l 1
 -14 721 -36 685 -49 663 c 1
EndSplineSet
MultipleSubs2: "Multiple Substitution lookup 70 subtable" denpabu oibu
Ligature2: "zlmVV subtable" obu ibu
LCarets2: 1 0
EndChar

StartChar: aubu
Encoding: 61 60841 73
Width: 0
VWidth: 988
GlyphClass: 4
Flags: W
HStem: 650 110<-39.529 8.47824>
VStem: -55 112<666.518 739.388>
AnchorPoint: "Top" 0 658 mark 0
LayerCount: 2
Fore
SplineSet
-36 555 m 2
 -39 558 -41 562 -41 567 c 0
 -41 569 -40 570 -39 572 c 0
 -38 574 -37 576 -35 578 c 0
 -32 581 -29 584 -25 589 c 0
 -21 594 -16 600 -12 606 c 0
 -8 612 -4 618 0 626 c 0
 4 634 7 642 9 651 c 1
 7 651 6 650 4 650 c 0
 2 650 1 650 -1 650 c 0
 -17 650 -30 655 -40 666 c 0
 -50 677 -55 691 -55 707 c 0
 -55 722 -50 735 -40 745 c 0
 -30 755 -17 760 0 760 c 0
 19 760 32 753 42 740 c 0
 52 727 57 710 57 689 c 0
 57 663 50 638 36 613 c 0
 22 588 2 566 -23 544 c 1
 -36 555 l 2
EndSplineSet
MultipleSubs2: "Multiple Substitution lookup 71 subtable" denpabu aubu
Ligature2: "zlmVV subtable" abu ubu
LCarets2: 1 0
EndChar

StartChar: iy
Encoding: 62 60842 74
Width: 530
GlyphClass: 2
Flags: W
HStem: 0 21G<18 116.038 413.962 511> 426 61<250.652 271>
AnchorPoint: "Top" 264 658 basechar 0
AnchorPoint: "Bottom" 263 0 basechar 0
LayerCount: 2
Fore
SplineSet
511 0 m 1
 421 0 l 1
 301 341 l 1
 271 426 l 1
 258 426 l 1
 245.333007812 388 235.666992188 359.666992188 229 341 c 2
 109 0 l 1
 18 0 l 1
 196 466 l 2
 201.333007812 480 211.333007812 487 226 487 c 2
 303 487 l 2
 317.666992188 487 327.666992188 480 333 466 c 2
 511 0 l 1
EndSplineSet
EndChar

StartChar: uy
Encoding: 63 60843 75
Width: 530
GlyphClass: 2
Flags: WO
HStem: 0 61<250.653 271> 467 20G<18 116.038 413.962 511>
AnchorPoint: "Bottom" 256 0 basechar 0
AnchorPoint: "Top" 256 658 basechar 0
LayerCount: 2
Fore
SplineSet
511 487 m 1
 333 21 l 2
 327.666666667 7 317.666666667 0 303 0 c 2
 226 0 l 2
 211.333333333 0 201.333333333 7 196 21 c 2
 18 487 l 1
 109 487 l 1
 229 146 l 2
 235.666666667 127.333333333 245.333333333 99 258 61 c 1
 271 61 l 1
 301 146 l 1
 421 487 l 1
 511 487 l 1
EndSplineSet
EndChar

StartChar: uniEDAC
Encoding: 272 60844 76
Width: 446
VWidth: 988
GlyphClass: 2
Flags: W
HStem: 0 69<132 406> 730 20G<188.958 277>
VStem: 188 89<212.256 750>
AnchorPoint: "Top" 230 659 basechar 0
AnchorPoint: "Bottom" 228 0 basechar 0
LayerCount: 2
Fore
SplineSet
132 69 m 0
 406 69 l 1
 406 0 l 1
 29 0 l 1
 29 37 l 2
 29 48 30.0631501485 53.8825866241 32 55 c 0
 136 115 187.874648581 218.83413022 188 278 c 2
 189 750 l 0
 277 750 l 1
 277 324 l 2
 277 256.750789571 242 140 174 83 c 0
 132 69 l 0
EndSplineSet
EndChar

StartChar: seplimeabu
Encoding: 68 60848 80
Width: 548
VWidth: 988
GlyphClass: 3
Flags: W
HStem: 0 21G<70 155> 416 71<155 487>
VStem: 70 85<0 416>
AnchorPoint: "Bottom" 305 0 basechar 0
LayerCount: 2
Fore
SplineSet
487 416 m 5
 155 416 l 5
 155 0 l 1
 70 0 l 1
 70 487 l 5
 487 487 l 5
 487 416 l 5
EndSplineSet
Ligature2: "zlmSF subtable" slakabu seplimeabu
LCarets2: 1 0
EndChar

StartChar: seplimeebu
Encoding: 69 60849 81
Width: 548
VWidth: 988
GlyphClass: 3
Flags: W
HStem: 0 21G<70 155> 225 71<155 487> 467 20G<70 155>
VStem: 70 85<0 225 296 487>
AnchorPoint: "Bottom" 307 0 basechar 0
LayerCount: 2
Fore
SplineSet
487 225 m 1
 155 225 l 1
 155 0 l 1
 70 0 l 1
 70 487 l 5
 155 487 l 4
 155 296 l 0
 487 296 l 1
 487 225 l 1
EndSplineSet
LCarets2: 1 0
Ligature2: "zlmSF subtable" slakabu seplimeebu
EndChar

StartChar: seplimeibu
Encoding: 70 60850 82
Width: 548
VWidth: 988
GlyphClass: 3
Flags: W
HStem: 0 21G<70 155 402 487> 416 71<155 402>
VStem: 70 85<0 416> 402 85<0 416>
AnchorPoint: "Bottom" 285 0 basechar 0
LayerCount: 2
Fore
SplineSet
155 416 m 5
 155 0 l 1
 70 0 l 1
 70 416 l 5
 70 487 l 5
 487 487 l 5
 487 416 l 5
 487 0 l 1
 402 0 l 1
 402 416 l 5
 155 416 l 5
EndSplineSet
LCarets2: 1 0
Ligature2: "zlmSF subtable" slakabu seplimeibu
EndChar

StartChar: seplimeobu
Encoding: 71 60851 83
Width: 548
VWidth: 988
GlyphClass: 3
Flags: W
HStem: 0 71<70 402> 467 20G<402 487>
VStem: 402 85<71 487>
AnchorPoint: "Bottom" 278 0 basechar 0
LayerCount: 2
Fore
SplineSet
70 71 m 1
 402 71 l 1
 402 487 l 5
 487 487 l 5
 487 0 l 1
 70 0 l 1
 70 71 l 1
EndSplineSet
LCarets2: 1 0
Ligature2: "zlmSF subtable" slakabu seplimeobu
EndChar

StartChar: seplimeubu
Encoding: 72 60852 84
Width: 548
VWidth: 988
GlyphClass: 3
Flags: W
HStem: 0 71<155 402> 467 20G<70 155 402 487>
VStem: 70 85<71 487> 402 85<71 487>
AnchorPoint: "Bottom" 286 0 basechar 0
LayerCount: 2
Fore
SplineSet
155 71 m 1
 402 71 l 1
 402 487 l 5
 487 487 l 5
 487 71 l 1
 487 0 l 1
 70 0 l 1
 70 71 l 1
 70 487 l 5
 155 487 l 5
 155 71 l 1
EndSplineSet
LCarets2: 1 0
Ligature2: "zlmSF subtable" slakabu seplimeubu
EndChar

StartChar: seplimeybu
Encoding: 73 60853 85
Width: 548
VWidth: 988
GlyphClass: 3
Flags: W
HStem: 0 21G<234 319> 225 71<70 234 319 487> 467 20G<234 319>
VStem: 234 85<0 224 296 487>
AnchorPoint: "Bottom" 277 0 basechar 0
LayerCount: 2
Fore
SplineSet
487 225 m 1
 319 225 l 1
 319 0 l 1
 234 0 l 1
 234 224 l 0
 70 224 l 0
 70 296 l 0
 234 296 l 0
 234 487 l 5
 319 487 l 4
 319 296 l 0
 487 296 l 1
 487 225 l 1
EndSplineSet
LCarets2: 1 0
Ligature2: "zlmSF subtable" slakabu seplimeybu
EndChar

StartChar: seplimeaibu
Encoding: 74 60854 86
Width: 548
VWidth: 988
GlyphClass: 3
Flags: W
HStem: 0 71<155 487> 416 71<155 487>
VStem: 70 85<71 416>
AnchorPoint: "LigaBottom" 287 0 basechar 0
LayerCount: 2
Fore
SplineSet
487 71 m 1
 487 0 l 1
 155 0 l 1
 70 0 l 1
 70 487 l 5
 155 487 l 5
 487 487 l 5
 487 416 l 5
 155 416 l 5
 155 71 l 1
 487 71 l 1
EndSplineSet
LCarets2: 1 0
Ligature2: "zlmSFF subtable" slakabu seplimeaibu
Ligature2: "zlmFF subtable" seplimeabu seplimeibu
EndChar

StartChar: seplimeeibu
Encoding: 75 60855 87
Width: 427
VWidth: 988
GlyphClass: 3
Flags: W
HStem: -12 63<122.434 278.992> 434 65<156.532 312.582>
VStem: 46 84<317.837 407.788> 307 82<79.3341 177.454>
AnchorPoint: "Bottom" 225 0 basechar 0
LayerCount: 2
Fore
SplineSet
205 51 m 0
 262.208467174 51 307 77.9067210165 307 134 c 0
 307 164.697898279 287.75032574 180.12483713 266 191 c 0
 254 197 241 203 225 208 c 0
 209 213 193 218 177 223 c 0
 111.834220618 243.364306057 46 269.130859375 46 354 c 0
 46 425.541992188 94.4716796875 468.171875 149 488 c 0
 171 496 196 499 224 499 c 0
 293.997070312 499 344.237304688 475.828125 381 441 c 1
 361 409 l 2
 357 402 351 398 343 398 c 0
 338 398 332 400 326 404 c 0
 301.849609375 420.100585938 267.258789062 434 226 434 c 0
 196.868164062 434 171.578125 425.630859375 156 412 c 0
 142.341796875 400.048828125 130 384.294921875 130 361 c 0
 130 316.267578125 176.8203125 301.7265625 212 290 c 0
 289.908203125 264.030273438 389 252.467909623 389 149 c 0
 389 68.501330631 342.183802473 21.2813225994 281 0 c 0
 258 -8 231 -12 200 -12 c 0
 127.763713086 -12 71.63577784 14.227799944 33 49 c 1
 54 82 l 2
 59.6496950872 89.5329267829 64.3649834142 96 77 96 c 0
 83 96 89 94 96 89 c 0
 123.848400088 69.1082856513 154.898167012 51 205 51 c 0
EndSplineSet
LCarets2: 1 0
Ligature2: "zlmSFF subtable" slakabu seplimeeibu
Ligature2: "zlmFF subtable" seplimeebu seplimeibu
EndChar

StartChar: seplimeoibu
Encoding: 76 60856 88
Width: 548
VWidth: 988
GlyphClass: 3
Flags: W
HStem: 0 71<70 402> 416 71<70 402>
VStem: 402 85<71 416>
AnchorPoint: "Bottom" 283 0 basechar 0
LayerCount: 2
Fore
SplineSet
70 71 m 1
 402 71 l 1
 402 416 l 5
 70 416 l 5
 70 487 l 5
 402 487 l 5
 487 487 l 5
 487 0 l 1
 402 0 l 1
 70 0 l 1
 70 71 l 1
EndSplineSet
LCarets2: 1 0
Ligature2: "zlmSFF subtable" slakabu seplimeoibu
Ligature2: "zlmFF subtable" seplimeobu seplimeibu
EndChar

StartChar: seplimeaubu
Encoding: 77 60857 89
Width: 492
VWidth: 988
GlyphClass: 3
Flags: HW
HStem: 0 21G<11 93.5 392.5 481> 480 20G<18 106.5 390.5 474>
AnchorPoint: "Bottom" 244 0 basechar 0
LayerCount: 2
Fore
SplineSet
481 0 m 1
 396 0 l 2
 389 0 383 2 379 6 c 0
 375 10 372 13 369 18 c 2
 243 209 l 1
 242 204 240 200 239 196 c 0
 238 192 236 188 233 184 c 2
 116 18 l 2
 113 13 109 10 105 6 c 0
 101 2 97 0 90 0 c 2
 11 0 l 1
 187 252 l 1
 18 487 l 1
 103 487 l 2
 110 487 116 486 119 484 c 0
 122 482 124 478 127 474 c 2
 250 294 l 1
 253 304 257 313 263 322 c 2
 371 472 l 2
 374 477 377 480 380 483 c 0
 383 486 388 487 393 487 c 2
 474 487 l 1
 305 256 l 1
 481 0 l 1
EndSplineSet
LCarets2: 1 0
Ligature2: "zlmSFF subtable" slakabu seplimeaubu
Ligature2: "zlmFF subtable" seplimeabu seplimeubu
EndChar

StartChar: uniEDBC
Encoding: 278 60860 92
Width: 446
VWidth: 988
GlyphClass: 2
Flags: W
HStem: -250 21G<158 246> 431 69<29 302>
VStem: 158 88<-250 260.403>
AnchorPoint: "Top" 208 658 basechar 0
AnchorPoint: "Bottom" 203 0 basechar 0
LayerCount: 2
Fore
SplineSet
302 431 m 0
 29 431 l 1
 29 500 l 1
 406 500 l 1
 406 464 l 2
 406 453 404.936849852 446.117413376 403 445 c 0
 299 385 246 222 246 222 c 2
 246 -250 l 0
 158 -250 l 1
 158 176 l 2
 158 176 192 360 260 417 c 0
 302 431 l 0
EndSplineSet
EndChar

StartChar: bahebu_bahebu
Encoding: 78 -1 96
Width: 0
VWidth: 0
GlyphClass: 4
Flags: W
HStem: -194 124<-403.03 -308.583 -226.03 -131.583>
VStem: -417 123<-179.661 -84.3391> -240 123<-179.661 -84.3391>
AnchorPoint: "Bottom" -267 0 mark 0
LayerCount: 2
Fore
SplineSet
-417 -132 m 4
 -417 -123 -416 -116 -413 -108 c 4
 -410 -100 -405 -94 -400 -88 c 4
 -395 -82 -388 -78 -380 -75 c 4
 -372 -72 -365 -70 -356 -70 c 260
 -347 -70 -340 -72 -332 -75 c 4
 -324 -78 -318 -82 -312 -88 c 4
 -306 -94 -302 -100 -299 -108 c 4
 -296 -116 -294 -123 -294 -132 c 4
 -294 -141 -296 -149 -299 -156 c 4
 -302 -163 -306 -170 -312 -176 c 4
 -318 -182 -324 -186 -332 -189 c 4
 -340 -192 -347 -194 -356 -194 c 260
 -365 -194 -372 -192 -380 -189 c 4
 -388 -186 -395 -182 -400 -176 c 4
 -405 -170 -410 -163 -413 -156 c 4
 -416 -149 -417 -141 -417 -132 c 4
-240 -132 m 4
 -240 -123 -239 -116 -236 -108 c 4
 -233 -100 -228 -94 -223 -88 c 4
 -218 -82 -211 -78 -203 -75 c 4
 -195 -72 -188 -70 -179 -70 c 260
 -170 -70 -163 -72 -155 -75 c 4
 -147 -78 -141 -82 -135 -88 c 4
 -129 -94 -125 -100 -122 -108 c 4
 -119 -116 -117 -123 -117 -132 c 4
 -117 -141 -119 -149 -122 -156 c 4
 -125 -163 -129 -170 -135 -176 c 4
 -141 -182 -147 -186 -155 -189 c 4
 -163 -192 -170 -194 -179 -194 c 260
 -188 -194 -195 -192 -203 -189 c 4
 -211 -186 -218 -182 -223 -176 c 4
 -228 -170 -233 -163 -236 -156 c 4
 -239 -149 -240 -141 -240 -132 c 4
EndSplineSet
Ligature2: "zlmBahebu subtable" bahebu bahebu
LCarets2: 1 0
EndChar

StartChar: bahebu_bahebu_bahebu
Encoding: 79 -1 97
Width: 0
VWidth: 0
GlyphClass: 4
Flags: W
HStem: -313 124<-315.03 -220.583> -189 124<-404.03 -309.583 -227.03 -132.583>
VStem: -418 123<-174.661 -79.3391> -329 123<-298.661 -203.339> -241 123<-174.661 -79.3391>
AnchorPoint: "Bottom" -268 0 mark 0
LayerCount: 2
Fore
SplineSet
-329 -251 m 0x90
 -329 -242 -328 -235 -325 -227 c 0
 -322 -219 -317 -213 -312 -207 c 0
 -307 -201 -300 -197 -292 -194 c 0
 -284 -191 -277 -189 -268 -189 c 256
 -259 -189 -252 -191 -244 -194 c 0
 -236 -197 -230 -201 -224 -207 c 0
 -218 -213 -214 -219 -211 -227 c 0
 -208 -235 -206 -242 -206 -251 c 0
 -206 -260 -208 -268 -211 -275 c 0
 -214 -282 -218 -289 -224 -295 c 0
 -230 -301 -236 -305 -244 -308 c 0
 -252 -311 -259 -313 -268 -313 c 256
 -277 -313 -284 -311 -292 -308 c 0
 -300 -305 -307 -301 -312 -295 c 0
 -317 -289 -322 -282 -325 -275 c 0
 -328 -268 -329 -260 -329 -251 c 0x90
-418 -127 m 0x60
 -418 -118 -417 -111 -414 -103 c 0
 -411 -95 -406 -89 -401 -83 c 0
 -396 -77 -389 -73 -381 -70 c 0
 -373 -67 -366 -65 -357 -65 c 256
 -348 -65 -341 -67 -333 -70 c 0
 -325 -73 -319 -77 -313 -83 c 0
 -307 -89 -303 -95 -300 -103 c 0
 -297 -111 -295 -118 -295 -127 c 0
 -295 -136 -297 -144 -300 -151 c 0
 -303 -158 -307 -165 -313 -171 c 0
 -319 -177 -325 -181 -333 -184 c 0
 -341 -187 -348 -189 -357 -189 c 256
 -366 -189 -373 -187 -381 -184 c 0
 -389 -181 -396 -177 -401 -171 c 0
 -406 -165 -411 -158 -414 -151 c 0
 -417 -144 -418 -136 -418 -127 c 0x60
-241 -127 m 0x48
 -241 -118 -240 -111 -237 -103 c 0
 -234 -95 -229 -89 -224 -83 c 0
 -219 -77 -212 -73 -204 -70 c 0
 -196 -67 -189 -65 -180 -65 c 256
 -171 -65 -164 -67 -156 -70 c 0
 -148 -73 -142 -77 -136 -83 c 0
 -130 -89 -126 -95 -123 -103 c 0
 -120 -111 -118 -118 -118 -127 c 0
 -118 -136 -120 -144 -123 -151 c 0
 -126 -158 -130 -165 -136 -171 c 0
 -142 -177 -148 -181 -156 -184 c 0
 -164 -187 -171 -189 -180 -189 c 256
 -189 -189 -196 -187 -204 -184 c 0
 -212 -181 -219 -177 -224 -171 c 0
 -229 -165 -234 -158 -237 -151 c 0
 -240 -144 -241 -136 -241 -127 c 0x48
EndSplineSet
Ligature2: "zlmBahebu subtable" bahebu bahebu bahebu
LCarets2: 2 0 0
EndChar

StartChar: smajibu.init
Encoding: 48 -1 98
Width: 416
VWidth: 988
GlyphClass: 2
Flags: W
HStem: 224 74<70 427>
LayerCount: 2
Fore
SplineSet
70 298 m 1
 427 298 l 1
 427 224 l 1
 70 224 l 1
 70 298 l 1
EndSplineSet
EndChar

StartChar: smajibu.medi
Encoding: 49 -1 99
Width: 416
VWidth: 988
GlyphClass: 2
Flags: W
HStem: 224 74<-10 427>
LayerCount: 2
Fore
SplineSet
-10 298 m 1
 427 298 l 1
 427 224 l 1
 -10 224 l 1
 -10 298 l 1
EndSplineSet
EndChar

StartChar: smajibu.fina
Encoding: 50 -1 100
Width: 416
VWidth: 988
GlyphClass: 2
Flags: W
HStem: 224 74<-10 343>
LayerCount: 2
Fore
SplineSet
-10 298 m 1
 343 298 l 1
 343 224 l 1
 -10 224 l 1
 -10 298 l 1
EndSplineSet
EndChar

StartChar: denpabu.cas
Encoding: 51 -1 101
Width: 232
VWidth: 988
Flags: W
HStem: 306 87<27.1897 209.657> 480 20G<304 340>
VStem: 18 322
AnchorPoint: "Top" 70 658 basechar 0
AnchorPoint: "Bottom" 111 0 basechar 0
LayerCount: 2
Fore
SplineSet
306 415 m 1
 293 387 267 360 224 335 c 0
 191 316 151 306 102 306 c 0
 86 306 70 308 56 310 c 0
 42 312 29 315 18 320 c 1
 27 386 l 1
 31 395 38 399 50 399 c 0
 57 399 67 398 80 396 c 0
 93 394 108 393 124 393 c 0
 148 393 169 395 187 400 c 0
 205 405 221 412 236 421 c 0
 250 430 264 441 275 454 c 0
 292 474 302 489 306 500 c 1
 340 481 l 1
 306 415 l 1
EndSplineSet
EndChar

StartChar: yhy.cas
Encoding: 67 -1 109
Width: 248
Flags: W
HStem: 0 21G<82 166> 467 20G<82 166>
VStem: 82 84<0 487>
AnchorPoint: "Top" 125 656 basechar 0
AnchorPoint: "Bottom" 119 0 basechar 0
LayerCount: 2
Fore
SplineSet
166 0 m 1
 82 0 l 1
 82 487 l 1
 166 487 l 1
 166 0 l 1
EndSplineSet
EndChar
